<svg xmlns="http://www.w3.org/2000/svg" width="333" height="290" xmlns:v="https://vecta.io/nano"><style><![CDATA[.B{fill:#f9f9f8}.C{fill:#dcdcdb}.D{fill:#efefef}.E{fill:#b4b2b3}]]></style><clipPath id="A"><path d="M0 0h333.478v289.846H0z"/></clipPath><g clip-path="url(#A)"><path fill="#0b3169" d="M0 0h23.457 22.274H67.42h22.578 21.88 22.444 22.027 22.409 22.094 22.222 21.951 22.275 22.042 22.377 21.757v7.793 22.763 111.838 19.495 45.878 52.603 14.389 3.699 11.671h-21.819-22.346-21.908-22.309-22.031-22.116-22.33-22.193-22.047-22.34-22-22.24-22.079-22.137H.849.458 0v-29.317-22.732-38.053-10.899-46.37-27.05c.595-.563.14-17.688.757-18.651l.963-.091c.383-1.394.301-21.649.077-22.05L.979 74.7l-.144-.037c-.294-.521-.191-16.71-.162-18.505l-.119-3.885c-.331-6.3.192-12.993-.018-19.331-.034-1.025.243-2.189-.536-2.87V8.223 0z"/><path fill="#3d3d3e" d="M0 0h23.457 22.274H67.42h22.578l.013 8.132c-.042 7.391-.258 14.955.013 22.319-.018 1.309-.311 5.84.407 6.71.578.051 1.081.107 1.655.19l.032.083-.702.187c-10.224.442-21.554-.302-31.832.096 2.383 2.191 6.794 6.588 9.013 9.022l5.327 5.314c5.279 4.879 10.533 9.816 15.442 15.069.362.387.883.879 1.204 1.28 6.995 6.568 11.022 13.867 21.439 14.594l22.583.008c-.122 1.358-.262 2.704-.28 4.068.065 2.317-.189 7.866.092 9.773.006.87.025 1.075-.242 1.926.128 4.362-.167 7.445.133 12.041-.651.016-1.565-.007-2.171.154 6.485.173 14.891-.16 21.453-.295l-13.998 13.936c-1.942 1.936-3.958 4.156-5.926 6.014-3.306 3.032-6.981 6.795-10.183 10.019-3.2 2.991-8.383 7.85-11.156 11.084 2.437 2.539 5.231 5.142 7.782 7.592 1.082 1.039 4.138 3.969 5.289 4.837l.259-.272c1.619-.463 6.735-.392 8.684-.401 5.147-.147 14.964.421 20.514-.245.246-.03.244-.28.344-.593.68.645 1.221 1.195 1.858 1.883-1.114 1.816-.382 17.906-.604 21.107 2.862.207 6.44.114 9.351.15 2.947.037 6.52.105 9.416-.376.662-.11.784-.331 1.088-.804 7.649 7.641 14.58 15.04 22.017 22.869l2.646 2.704 27.191 28.283c-1.55.066-3.591-.139-4.853.003-.238.296-.333 19.383-.405 21.578l1.278 1.281c2.761 2.607 9.604 9.292 5.441 13.881-1.257 1.386-5.014 2.284-6.907 1.927-4.669-2.517-12.969-12.017-17.171-16.176l-4.635.034.025 21.984.022 7.155h-22.33-22.193-22.047-22.34-22-22.24-22.079-22.137H.849.458 0v-29.317-22.732-38.053-10.899-46.37-27.05c.595-.563.14-17.688.757-18.651l.963-.091c.383-1.394.301-21.649.077-22.05L.979 74.7l-.144-.037c-.294-.521-.191-16.71-.162-18.505l-.119-3.885c-.331-6.3.192-12.993-.018-19.331-.034-1.025.243-2.189-.536-2.87V8.223 0z"/><path d="M0 0h23.457 22.274H67.42h22.578l.013 8.132c-.042 7.391-.258 14.955.013 22.319-.018 1.309-.311 5.84.407 6.71.578.051 1.081.107 1.655.19l.032.083-.702.187c-10.224.442-21.554-.302-31.832.096 2.383 2.191 6.794 6.588 9.013 9.022l5.327 5.314c5.279 4.879 10.533 9.816 15.442 15.069.362.387.883.879 1.204 1.28-.603.749-.505 4.969-.535 6.294-1.236-.001-3.088-.058-4.273.051l-17.89.006a648.96 648.96 0 0 1-.153 21.754c-.326 1.061-.176 1.646-.441 2.504-.008 2.296.585 9.947-.576 12.049-.039.071-.661.519-.797.615l-11.529.066c-1.466.017-3.293.149-4.687.126-1.582.242-5.55.207-7.339.223l-14.622.011-.011 7.201c.013 1.671.073 3.693-.008 5.33.174 3.351.049 7.219.08 10.615l-.055 29.443c.059 3.784.107 7.431-.077 11.218l.044 28.582c-.019 2.57.144 8.922-.154 11.292l.094 14.995c.031 2.322-.059 5.026.116 7.305-.81.232-3.184.855-3.729 1.062-.994 2.206-.532 18.349-.552 21.748-2.982.092-20.318.342-22.205-.192l-.183-.453c-.255-4.738-.276-8.892-.289-13.631l.065-1.163.206.813-.001-7.431.067-.223-.37.012L0 238.08v-38.053-10.899-46.37-27.05c.595-.563.14-17.688.757-18.651l.963-.091c.383-1.394.301-21.649.077-22.05L.979 74.7l-.144-.037c-.294-.521-.191-16.71-.162-18.505l-.119-3.885c-.331-6.3.192-12.993-.018-19.331-.034-1.025.243-2.189-.536-2.87V8.223 0z" class="C"/><path d="M0 115.708c.595-.563.14-17.688.757-18.651l.963-.091c1.734.179 4.514.141 6.308.164a425.94 425.94 0 0 0 15.62-.158c-.244 2.318-.172 5.014-.204 7.375-.065 4.876.109 9.821.066 14.692-7.112-.312-15.236-.004-22.516-.058.021 6.61.311 16.123-.097 22.476 7.269-.331 15.222-.193 22.564-.271l.16 18.658c.043 1.173.101 2.225.258 3.389.83.112 2.037.24 2.818.441l1.036 1.016c.059 3.784.107 7.431-.077 11.218l.044 28.582c-.019 2.57.144 8.922-.154 11.292l.094 14.995c.031 2.322-.059 5.026.116 7.305-.81.232-3.184.855-3.729 1.062-.994 2.206-.532 18.349-.552 21.748-2.982.092-20.318.342-22.205-.192l-.183-.453c-.255-4.738-.276-8.892-.289-13.631l.065-1.163.206.813-.001-7.431.067-.223-.37.012L0 238.08v-38.053-10.899-46.37-27.05z" class="D"/><g class="C"><path d="M1.017 207.612l22.405.011-.143 31.04-22.21.171.067-.223-.084-26.599a127.52 127.52 0 0 1-.035-4.4zm.962-44.248c7.258.047 14.149.197 21.462-.015l.052 19.79c.014.818.07 1.642.058 2.46l-15.03-.013c-1.495-.002-6.241.08-7.463-.098.38-.042.552-.011.841-.248.223-1.805.18-6.796.165-8.749-.032-4.165.129-8.985-.084-13.126zm21.67 22.354c1.073-.088 2.31.045 3.307-.249 1.176-1.323.174-7.368.7-9.562l.044 28.582c-.019 2.57.144 8.922-.154 11.292-.179-1.389-.022-5.013.015-6.589l-.788-1.382c-1.168-.12-2.219-.074-3.065-.861-.489-1.717-.209-18.776-.059-21.231z"/></g><path d="M0 142.758c.986 1.726-.535 18.456 1.371 20.528l.607.078c.213 4.141.052 8.961.084 13.126.015 1.953.058 6.944-.165 8.749-.289.237-.46.206-.841.248l-.104.746-.273.272-.205-.317-.102.079c-.057.63-.078 2.553-.372 2.86v-46.37z" class="E"/><g fill="#cccccd"><path d="M.953 186.234c.042 1.899-.349 4.457-.545 6.4L0 200.027v-10.899c.295-.307.315-2.23.372-2.86l.102-.079.205.317.273-.272zm-.155 60.381l.065-1.163.206.813a385.57 385.57 0 0 1 .019 13.981c-.255-4.738-.276-8.892-.289-13.631z"/></g><path d="M45.731 0H67.42h22.578l.013 8.132c-.042 7.391-.258 14.955.013 22.319-4.388-.348-11.265-.024-15.93-.007-9.475.047-18.951-.035-28.424-.245L45.731 0h0z" class="B"/><path d="M67.42 0h22.578l.013 8.132a513.22 513.22 0 0 1-22.585.197L67.42 0z" class="C"/><path d="M0 0h23.457l-.022 6.303-.042 8.826.062 15.318c-6.377-.504-14.241-.103-20.851-.158.411.619.17 1.938.124 2.737-.283 4.825-.045 9.667-.153 14.495-.033 1.487.229 3.635-.007 5.041-.794.015-.728-.121-1.197.275-.438 1.42.248 2.173-.697 3.321l-.119-3.885c-.331-6.3.192-12.993-.018-19.331-.034-1.025.243-2.189-.536-2.87V8.223 0z" class="D"/><path d="M0 0h23.457l-.022 6.303c-.06.519-.064 1.213-.364 1.602-.96.1-2.045.131-3.014.11C13.426 7.873 6.6 8.345 0 8.223V0z" class="B"/><path fill="#cccccd" d="M.554 52.274c.714-3.328-.537-20.288.331-21.784.474-.345 1.103-.224 1.72-.2.411.619.17 1.938.124 2.737-.283 4.825-.045 9.667-.153 14.495-.033 1.487.229 3.635-.007 5.041-.794.015-.728-.121-1.197.275-.438 1.42.248 2.173-.697 3.321l-.119-3.885z"/><g class="B"><path d="M2.567 52.563c6.785.189 14.254.079 21.052.011l-.178 22.136L.979 74.7l-.144-.037c-.294-.521-.191-16.71-.162-18.505.945-1.147.259-1.901.697-3.321.47-.396.403-.26 1.197-.275z"/><path d="M23.441 74.71l22.167.01c-.22 7.271-.156 14.815-.182 22.117-6.939.237-14.817.007-21.825.011l-.159-22.138zm-.023-44.175l22.156.079c-.201 7.027-.087 14.857.05 21.911-7.283-.07-14.72.207-22.005.05l-.201-22.039zm22.068 66.497c7.426.124 14.249-.034 21.657-.178.06.682.092 1.467.134 2.158-.008 2.296.585 9.947-.576 12.049-.039.071-.661.519-.797.615l-11.529.066c-1.466.017-3.293.149-4.687.126-.865-.105-2.982-.002-3.942.019a416.1 416.1 0 0 0-.261-14.854zm-21.993 22.145l4.224.124-.008 5.33c-.166 1.247-.093 4.352-.093 5.726l.01 10.757c-1.231-.018-2.984.119-3.943-.565-.625-1.768-.219-18.295-.19-21.372zm45.105-72.439l5.327 5.314c-1.253.585-4.74.42-6.203.386.007-1.836-.184-4.186.876-5.7z"/><path d="M67.359 52.497l.134.095c.167.687.099 6.143.099 7.195l.138 14.932-21.672.013-.153-.035-.183-.207-.011-21.904 21.648-.091z"/></g><path d="M68.08 195.221c5.15 3.159 9.519 8.318 14.032 12.117 2.605 2.173 5.149 4.418 7.628 6.734l16.435 14.729c1.928 1.749 5.449 4.628 7.04 6.432.913.781 2.062 1.713 2.907 2.537l18.717 16.912c1.688 1.557 4.364 4.04 6.322 5.09.761.197 4.683.557 5.21.29.925.724 8.795.986 9.549.317.201-.904.238-3.308.265-4.368.12-4.73.33-9.751.167-14.463l7.955 8.025 3.913 4.121c2.931 3.159 5.926 6.174 10.63 5.04 5.693-4.138 4.053-8.108-.021-12.533.205-1.976.095-5.459.069-7.479 1.729-.005 2.878-.092 4.596-.261l10.591 10.827c2.054 2.08 4.993 4.89 6.829 7.023l4.619 4.643-4.635.034.025 21.984.022 7.155h-22.33-22.193-22.047-22.34-22-22.24-22.079-22.137H.849.458 0v-29.317-22.732l.766.543.37-.012-.067.223.001 7.431-.206-.813-.065 1.163c.013 4.739.035 8.893.289 13.631l.183.453c1.887.534 19.224.284 22.205.192.021-3.399-.442-19.542.552-21.748.545-.207 2.919-.829 3.729-1.062l.461-.235c5.016-5.929 11.559-12.451 16.998-18.036 2.828-3.739 8.298-8.962 11.626-12.427 2.868-3.395 7.216-7.944 10.37-11.164l.869-.998z" class="C"/><path d="M178.899 238.723c1.729-.005 2.878-.092 4.596-.261l10.591 10.827 6.829 7.023-.027 4.637a616.47 616.47 0 0 0-6.674.034l-3.348-3.638-3.475 3.3-8.788.016c-.025 4.517.265 10.251-.534 14.566a96.81 96.81 0 0 0 3.295 3.275l-5.313 5.216c-.889.87-1.918 2.048-2.82 2.853l-4.02-3.86c-2.385.487-9.904.267-12.609.243.019-2.205-.116-8.296.724-10.037.654.613.933.815 1.66 1.315 3.781-1.841 5.683-4.555 8.355-7.719-1.611-1.703-3.466-3.484-5.135-5.154 2.59-1.201 13.916.492 16.225-1.108.358-.506.341-.887.419-1.517 5.693-4.138 4.053-8.108-.021-12.533.205-1.976.095-5.459.069-7.479z" class="B"/><path fill="#b9292b" d="M173.228 270.282l4.842 4.947 3.295 3.275-5.313 5.216-2.82 2.853-4.02-3.86-4.018-4.208c2.607-2.372 5.576-5.615 8.035-8.223z"/><g class="B"><path d="M82.112 207.338a181.11 181.11 0 0 1 7.628 6.734 126.49 126.49 0 0 0 .042 3.846c.164 6.904-.113 13.858.096 20.755a1900.4 1900.4 0 0 1-22.123-.06c.21-4.974.12-10.387.12-15.379l-.084-15.493c2.49.013 12.378.256 14.321-.402zM23.49 260.86l22.131-.046-.053 22.148-22.024.025.037 7.142H.849a120.75 120.75 0 0 1 .097-4.961c.029-.501.022-1.468.24-1.863 1.577-.256 3.67-.173 5.293-.178l16.938-.171c.108-6.824.368-15.3.073-22.095zm44.274.095l22.268-.138-.027 22.149-14.704.005c-2.176.002-5.439-.092-7.533.031l-.005-22.047zM45.215 219.81c.614 1.162.347 16.135.37 18.869-3.373.042-14.684.431-17.076-.457l-.292-.377c5.016-5.929 11.559-12.451 16.998-18.036zm133.531 63.314c7.536-.296 14.725 0 22.179-.15l.022 7.155h-22.33c.015-2.335.012-4.675.129-7.005zm-44.387-.001l22.118-.18-.053 7.186h-22.047l-.018-7.006z"/><path d="M67.769 283.002l.028 7.127H45.718l-.059-7.005 13.884.01 8.226-.132zm22.288.136c7.045.036 15.053.222 22.033.007l-.053 6.984h-22l.02-6.991z"/></g><g fill="#b9292b"><path d="M159.331 258.561l2.876 2.799 5.135 5.154c-2.672 3.164-4.574 5.878-8.355 7.719-.727-.5-1.006-.702-1.66-1.315-1.918-2.098-4.08-4.23-6.112-6.217 2.694-2.576 5.496-5.475 8.117-8.14zm31.535-1.216l3.348 3.638 4.431 4.602c-2.495 2.648-5.431 5.44-8.041 8.018-2.115-2.303-5.632-5.508-7.995-7.911l4.782-5.046 3.475-3.3z"/></g><path d="M67.212 196.219l.263.293c.224 3.674.099 7.408.236 11.093-1.611.008-10.036.195-10.87-.221 2.868-3.395 7.216-7.944 10.37-11.164z" class="B"/><path d="M0 260.812l.876.264c.33 1.81.386 21.338-.089 22.091-.038.059-.082.114-.123.171.291.499.198 1.227.282 1.83a120.75 120.75 0 0 0-.097 4.961H.458 0v-29.317z" class="D"/><path fill="#8b888c" d="M.664 283.337c.291.499.198 1.227.282 1.83l-.097 4.961H.458l.206-6.791z"/><path d="M134.371 260.666c0-1.303-.173-5.218.47-5.984 1.688 1.557 4.364 4.04 6.322 5.09-1.988 1.152-4.536.908-6.792.894z" class="B"/><path d="M113.216 235.232l2.907 2.537c-1.238.789-2.386.728-3.835.8.056-1.703-.092-2.052.928-3.338z" class="D"/><defs><linearGradient id="B" gradientUnits="userSpaceOnUse" x1="3.117" y1="856.213" x2="1.42" y2="856.168"><stop offset="0" stop-color="#c4c8ca"/><stop offset="1" stop-color="#eeedee"/></linearGradient></defs><path fill="url(#B)" transform="scale(.283329)" d="M2.702 842.213l1.306-.043-.238.786.002 26.226-.726-2.87-.229 4.106c-1.611 3.012-.992 8.767-1.334 12.802-1.436-3.628-.291-37.078 1.219-41.007z"/><g class="B"><path d="M45.757 238.719a679.05 679.05 0 0 0 21.992-.051c-.199 7.322-.065 14.894-.006 22.224-7.346-.137-14.769.058-22.093-.14l.107-22.033zm66.469 22.253c4.226-.002 8.324.088 12.541.185 3.142.072 6.376-.123 9.526-.183l-.114 14.24c.004 2.447.094 5.4-.021 7.777-5.457.394-10.901-.142-16.369.07-1.778.069-3.825-.057-5.618-.111-.124-7.067.365-15.065.056-21.978zm-22.117-22.27l21.8.137c-.152 7.245.032 14.62-.059 21.881-3.563-.08-6.984.155-10.477.105l-11.205-.158c.111-6.902.17-15.101-.059-21.965z"/></g><path d="M90.036 74.696c.03-1.325-.068-5.546.535-6.294 6.995 6.568 11.022 13.867 21.439 14.594l22.583.008c-.122 1.358-.262 2.704-.28 4.068.065 2.317-.189 7.866.092 9.773.006.87.025 1.075-.242 1.926.128 4.362-.167 7.445.133 12.041-.651.016-1.565-.007-2.171.154-4.22.062-8.379.352-12.588.408-1.072.014-3.301.09-4.338.009-2.191.28-7.333.117-9.718.092l-16.931-.112-22.645.31c.136-.096.758-.544.797-.615 1.16-2.102.567-9.753.576-12.049.266-.858.116-1.443.441-2.504a648.96 648.96 0 0 0 .153-21.754l17.89-.006c1.185-.109 3.037-.052 4.273-.051z" class="D"/><path d="M112.01 82.996l22.583.008-.28 4.068.092 9.773c.006.87.025 1.075-.242 1.926.128 4.362-.167 7.445.133 12.041-.651.016-1.565-.007-2.171.154-4.22.062-8.379.352-12.588.408-1.072.014-3.301.09-4.338.009-.821-.109-2.144-.084-3.013-.093-.137-4.22-.093-9.937.01-14.157l.087-.082c-.356-1.034-.162-11.87-.272-14.055z" class="C"/><path d="M112.282 97.052l16.806.006.152.023c1.63.23 4.483-.308 4.923 1.691.128 4.362-.167 7.445.133 12.041-.651.016-1.565-.007-2.171.154-4.22.062-8.379.352-12.588.408-1.072.014-3.301.09-4.338.009-.821-.109-2.144-.084-3.013-.093-.137-4.22-.093-9.937.01-14.157l.087-.082z" class="B"/><path d="M134.313 87.072l.092 9.773c.006.87.025 1.075-.242 1.926-.44-1.999-3.293-1.461-4.923-1.691l-.152-.023 5.084-.384.141-9.601z" class="D"/><path d="M67.873 74.753l17.89-.006c1.37.134 2.737.111 4.113.113v13.743l-.11 7.925c-3.578.238-7.914.013-11.596.076-2.531.044-8.085.236-10.451-.098a648.96 648.96 0 0 0 .153-21.754z" class="B"/><g class="C"><path d="M89.77 96.693c2.869-.13 20.886-.247 22.425.441-.103 4.22-.147 9.937-.01 14.157.869.008 2.193-.016 3.013.093-2.191.28-7.333.117-9.718.092l-16.931-.112c.461-.069.821-.057 1.149-.364.141-1.236.061-3.732.058-5.047l.012-9.261zm86.527 87.911c7.649 7.641 14.58 15.04 22.017 22.869-6.664.818-12.877.238-19.493.475.008 2.758.194 5.34.217 7.984-8.066-7.348-15.892-14.956-23.465-22.812 1.229-2.145.749-4.902.869-7.487 2.862.207 6.44.114 9.351.15 2.947.037 6.52.105 9.416-.376.662-.11.784-.331 1.088-.804zm24.663 25.573l27.191 28.283c-1.55.066-3.591-.139-4.853.003-.238.296-.333 19.383-.405 21.578l-22.979-23.303c1.329-1.705.889-22.792 1.046-26.562z"/></g><path d="M198.314 207.473l2.646 2.704c-.157 3.769.283 24.857-1.046 26.562-6.86-6.449-14.071-14.103-20.875-20.806-.023-2.644-.209-5.226-.217-7.984 6.616-.238 12.829.343 19.493-.475z" class="B"/><path d="M155.188 162.643l1.858 1.883c-1.114 1.816-.382 17.906-.604 21.107-1.415-.033-7.28-.401-8.143.502-1.55-1.146-4.702-4.225-6.108-5.608l-8.384-8.272c.406-.68.472-7.513.523-8.776 5.147-.147 14.964.421 20.514-.245.246-.03.244-.28.344-.593z" class="C"/><path d="M153.416 238.51l2.938 3.038c.163 4.712-.048 9.733-.167 14.463-.027 1.059-.064 3.463-.265 4.368-.754.668-8.624.407-9.549-.317 10.665-7.333-1.179-15.309-6.661-20.853.254-.17.429-.289.751-.296 4.413-.097 8.542.077 12.953-.402z" class="B"/><path d="M139.712 239.208c-3.99-3.173-1.812-9.756 2.7-9.769 3.173-.008 8.901 6.866 11.004 9.07-4.411.479-8.54.305-12.953.402-.322.007-.497.126-.751.296z" class="C"/><path d="M171.45 238.856c-3.401-3.256-6.896-9.278 1.065-9.777 2.056-.129 4.589 2.798 5.99 4.275l-.002 5.182c-2.331-.027-4.388.342-7.053.319z" class="B"/><path d="M178.505 233.354l4.99 5.107-4.596.261-.069 7.479a327.42 327.42 0 0 1-7.38-7.346c2.664.023 4.722-.347 7.053-.319l.002-5.182z" class="C"/><g class="B"><path d="M134.329 163.481l-.523 8.776c-2.568-2.186-5.984-5.68-8.42-8.102l.259-.272c1.619-.463 6.735-.392 8.684-.401zm13.97 22.655c.863-.903 6.728-.535 8.143-.502-.12 2.585.36 5.342-.869 7.487-2.34-2.377-4.93-4.477-7.274-6.985z"/></g><path d="M89.998 0h21.88 22.444 22.027 22.409 22.094 22.222 21.951 22.275 22.042 22.377 21.757v7.793 22.763 111.838 19.495 45.878 52.603c-3.726.442-8.452.318-12.302.32-1.813-1.877-4.273-4.878-6.092-6.908l-13.144-14.427c-.856-.67-3.556-3.719-4.389-4.643-3.134-3.47-6.205-6.993-9.217-10.568 1.159-1.061.878-7.276.875-9.041.283-1.558.082-5.135.405-7.347 2.779.014 5.808.088 8.565-.031-1.507-.227-6.551-.112-8.293-.106.221-3.457.133-7.776.15-11.274l.003-16.988-.261-13.974c-.034-1.608.819-1.625 2.105-1.862l-2.505-.426c-.034-4.34.125-9.086-.045-13.379l.034-8.573.598-.174-.031-14.706c.006-1.951.116-7.374-.215-8.958-.331-3.09-.096-10.102-1.431-12.719.465-2.423.544-4.73.654-7.184.057-.703.059-1.379.074-2.08.3-17.628-4.763-30.181-16.881-42.75l-4.949-4.034c-7.462-4.949-13.388-7.07-22.05-9.378-6.491-1.259-12.236-1.45-18.748-1.532-.938-.075-2.207-.121-3.068-.413-.434-.521-.251-5.734-.246-6.744-6.621-.207-15.53-.118-22.166.117l-.116 6.727c-5.141.197-10.125.376-15.287.228-.962-.027-3.937-.095-4.715.091l-1.561.037c-2.555.108-5.629.018-8.248.015l-15.027-.04c-7.025-.106-14.331-.021-21.367.018-2.513.09-5.435.011-7.997.01l-14.927-.029c-6.615-.129-13.603-.022-20.246-.026l.702-.187-.032-.083c-.574-.083-1.078-.139-1.655-.19-.718-.869-.425-5.401-.407-6.71-.271-7.364-.055-14.928-.013-22.319-.059-2.681-.02-5.444-.013-8.132z" class="C"/><g class="B"><path d="M311.622 207.724l21.856.043v52.603c-3.726.442-8.452.318-12.302.32-1.813-1.877-4.273-4.878-6.092-6.908l-13.144-14.427.139-.195c1.626-.686 7.531-.496 9.594-.492l-.051-30.946zM288.945 97.403c2.864-1.212 17.847-.235 22.386-.421.439.646.068 22.975.048 25.655l-.079 18.373a702.27 702.27 0 0 1-21.332-.039l-.031-14.706c.006-1.951.116-7.374-.215-8.958-.331-3.09-.096-10.102-1.431-12.719.465-2.423.544-4.73.654-7.184zm2.941 66.119c4.431.459 8.891.213 13.345.214 1.64 0 3.763-.34 5.327-.188.266.153.453.182.501.617.507 4.751.176 10.109.19 14.903.006 2.086-.453 4.6.017 6.524.323 2.337.218 4.972.278 7.348.127 4.912.014 9.815.006 14.725l-13.367.061c-1.507-.227-6.551-.112-8.293-.106.221-3.457.133-7.776.15-11.274l.003-16.988-.261-13.974c-.034-1.608.819-1.625 2.105-1.862zM200.9 8.259c7.372.167 14.747.156 22.118-.032-.134 2.385-.081 5.301-.091 7.727-.061 4.84-.011 9.68.148 14.518-6.621-.207-15.53-.118-22.166.117l-.01-22.33zm88.455 44.319l21.992.029.017 22.13-21.995.104c.139-7.171.314-15.094-.014-22.263z"/><path d="M267.355 30.459l22.08.084c-.125 6.569-.269 15.462-.079 22.034l-17.218-.004-4.949-4.034c.259-2.286.204-5.404.192-7.748l-.024-10.333zM178.759 0h22.094l.04 8.135c-3.658-.019-7.365.089-11.031.086-3.679-.004-7.416-.082-11.087.012L178.759 0zm-44.436 0h22.027l.114 8.114a513.44 513.44 0 0 1-22.161.002l.02-8.116h0zM89.998 0h21.88l.162 8.151-14.715.129-7.314-.148L89.998 0zm177.304 0h22.042l-.045 8.156c-.742 0-1.533.018-2.269-.011-6.596-.261-13.197.155-19.798-.066.058-2.664.158-5.422.07-8.078zm-44.226 0h21.951l.037 8.096c-7.337-.022-14.675-.007-22.012.046L223.076 0h0zm88.645 0h21.757v7.793l-8.746.034c-1.66-.112-4.53-.021-6.262-.029-1.799-.009-5.134-.09-6.786.136L311.721 0zm-88.645 30.473c6.492.364 15.404.185 22.01.116-.067 2.961-.014 5.619.052 8.572-6.491-1.259-12.236-1.45-18.748-1.532-.938-.075-2.207-.121-3.068-.413-.434-.521-.251-5.734-.246-6.744zm-133.051-.022c6.558.315 15.405.259 22.055.148-.024 1.644.169 5.907-.416 7.047-6.615-.129-13.603-.022-20.246-.026l.702-.187-.032-.083c-.574-.083-1.078-.139-1.655-.19-.718-.869-.425-5.401-.407-6.71zm44.447.106l21.889.024c-.028 1.648.191 5.947-.406 7.066-7.025-.106-14.331-.021-21.367.018-.235-1.714-.122-5.237-.116-7.108zm44.33.025l22.108.008-.116 6.727c-5.141.197-10.125.376-15.287.228-.962-.027-3.937-.095-4.715.091l-1.561.037-.217-.078c-.477-.609-.229-5.943-.211-7.012z"/></g><path fill="#8b888c" d="M324.732 7.827l8.746-.034v22.763c-.516-.659.076-19.295-.363-22.413-2.731.053-5.545.025-8.282.032l-.102-.348z"/><path d="M311.685 7.934c1.652-.226 4.987-.145 6.786-.136l6.262.029.102.348c-1.66.032-12.328.102-13.149-.241z" class="E"/><g class="B"><path d="M156.663 8.22l22.068.081.029 22.161-22.226.008c.258-7.133.101-15.046.129-22.25zm132.658.085l22.151.073-.125 22.03c-3.281-.026-6.687.184-9.993.159-3.964-.03-7.877-.175-11.837-.297-.47-6.182-.266-15.669-.195-21.964zm-161.537-.093l6.482-.123-.05 3.599c.14 6.183-.241 12.594.084 18.753l-15.067-.003-7.08.01.04-22.144c5.067.04 10.555.114 15.592-.092zm134.78.01l4.654-.08.034 22.267-17.046.032c-1.7.016-3.293-.029-4.99-.085.206-6.98.012-15.019-.018-22.081a525.26 525.26 0 0 0 17.367-.053z"/></g><g class="D"><path d="M311.495 141.308l14.45.031c2.255.013 4.873.417 6.984.39.105 5.108.399 10.051.031 15.18-.125 1.76.204 4.434-.122 6.1-.411.157-.351-.009-.578-.041-1.363-.195-3.587.39-5.026.417-5.103.098-10.347.23-15.433.105-.125-.908-.229-1.817-.32-2.729.11-4.173.36-8.321.144-12.499-.119-2.31-.119-4.641-.13-6.955zm.014-66.525c6.525.199 13.132-.051 19.66.178.482.017 1.266.15 1.623.501.142 1.236.085 2.393.133 3.623.229 5.783-.334 12.034.167 17.767-2.122-.232-4.477-.154-6.619-.105-4.921.114-9.888-.003-14.804.126l-.113-.434-.048-21.656z"/></g><path d="M311.656 30.724a588.28 588.28 0 0 1 21.482.09c-.105 7.276.187 14.323.099 21.528-5.525.109-14.679.495-20.08-.086l-.703-.158c-.612-.619-.62-3.076-.737-4.143-.218-2.154.074-4.507-.031-6.67-.17-3.454.184-7.148-.031-10.562z" class="B"/><path d="M200.756 82.973c5.7-.345 13.365-.313 17.811 3.644a10.87 10.87 0 0 1 3.592 7.584c.029.53-.008 2.952-.1 3.448-2.56 7.779-10.967 13.845-16.852 19.182l-4.788 4.301-12.892 11.605c-2.658 2.412-5.772 5.401-8.5 7.612-4.976 4.813-10.04 9.535-15.188 14.163l-7.321 6.457c-.5.522-1.044 1.014-1.331 1.674-.1.313-.098.563-.344.593-5.55.666-15.367.097-20.514.245-1.949.009-7.065-.062-8.684.401l-.259.272c-1.151-.869-4.207-3.799-5.289-4.837l-7.782-7.592c2.773-3.234 7.957-8.093 11.156-11.084 3.201-3.224 6.877-6.988 10.183-10.019 1.969-1.858 3.984-4.078 5.926-6.014l13.998-13.936c-6.562.135-14.968.468-21.453.295.606-.161 1.52-.138 2.171-.154-.3-4.596-.005-7.68-.133-12.041.267-.851.248-1.056.242-1.926-.281-1.906-.027-7.456-.092-9.773.018-1.364.158-2.71.28-4.068l21.722.004c6.404-.151 13.076-.085 19.492-.083l20.824.003 4.124.045z" class="C"/><g class="B"><path d="M200.874 96.925c1.402.108 3.591.044 5.067.049l9.804.044c1.918.011 4.063-.061 5.944.243.237.038.163.071.369.386-2.56 7.779-10.967 13.845-16.852 19.182l-4.788 4.301-12.892 11.605c-2.658 2.412-5.772 5.401-8.5 7.612-.609-6.493-.145-14.71-.231-21.35l22.302.174-.223-22.249zm-66.563 44.256c6.622.322 15.142.052 21.975.114l.017 12.408c.006 1.933-.083 5.479.215 7.267-.5.522-1.044 1.014-1.331 1.674-.1.313-.098.563-.344.593-5.55.666-15.367.097-20.514.245.243-7.046.016-15.16-.018-22.3z"/><path d="M156.615 96.929c6.454.348 15.524.169 22.123.098-.202 7.074.133 14.794.057 21.972H156.5l.114-22.07zm-22.022-13.925l21.722.004c-.035 4.611.037 9.222.214 13.829l-22.124.007c-.281-1.906-.027-7.456-.092-9.773.018-1.364.158-2.71.28-4.068zm62.038-.076l4.124.045c.209 4.161.034 9.631.042 13.905l-22.02-.02c.039-4.135-.115-9.781.169-13.76l11.735.004c1.301.001 4.882.087 5.951-.174zm-62.976 47.694c.698 1.89.552 8.052.554 10.389-1.469.005-9.959.211-10.737-.37 3.201-3.224 6.877-6.988 10.183-10.019z"/></g><path d="M222.892 260.042l.405-21.578c1.261-.143 3.302.063 4.853-.003 5.841 5.751 11.533 12.007 17.219 17.921l3.714 3.846c6.611 6.915 9.63 10.938 18.258 15.339 8.322 3.207 14.132 3.14 22.918 3.16-1.167 1.437-.346 3.876-2.57 4.098-2.737.272-5.505.292-8.255.304l-11.905.005-.124 6.996h-22.309-22.031-22.116l-.022-7.155-.025-21.984c1.494.023 3.129-.021 4.635-.034 4.201 4.159 12.502 13.659 17.171 16.176 1.893.356 5.649-.541 6.907-1.927 4.162-4.589-2.68-11.275-5.441-13.881l-1.278-1.281z" class="C"/><path d="M222.892 260.042l.405-21.578c1.261-.143 3.302.063 4.853-.003 5.841 5.751 11.533 12.007 17.219 17.921l3.714 3.846c6.611 6.915 9.63 10.938 18.258 15.339l.144 7.396c-7.678.251-14.581.172-22.24.086l.035-22.373-14.669.216c-1.593.042-5.088.028-6.442.429l-1.278-1.281z" class="B"/><path d="M245.369 256.382l3.714 3.846c-3.704 2.427-3.733-1.412-3.714-3.846z" class="C"/><g class="B"><path d="M200.9 260.989l4.635-.034c4.201 4.159 12.502 13.659 17.171 16.176-.107 1.574-.019 4.383.066 6.028-7.346.181-14.714-.309-21.846-.186l-.025-21.984zm22.121 22.179c7.35.19 14.703.184 22.052-.018l.022 6.98h-22.031c.007-2.233.068-4.754-.043-6.961z"/></g><path d="M289.217 163.061l-.031-7.913.15-5.43c.17 4.293.011 9.039.045 13.379l2.505.426c-1.286.237-2.139.254-2.105 1.862l.261 13.974-.003 16.988c-.017 3.499.071 7.817-.15 11.274 1.742-.006 6.786-.121 8.293.106-2.757.118-5.786.045-8.565.031-.323 2.212-.122 5.788-.405 7.347.003 1.765.283 7.981-.875 9.041-4.012-4.796-9.287-10.151-13.524-15.026-7.609-7.821-14.012-15.431-21.265-23.422 2.086-.223 4.817-.005 6.977-.12 2.208-.117 4.228-.33 6.446-.319.364-4.621.146-9.887.376-14.588.107-2.187-.595-4.675-.418-6.972l-.272-.273c.36-.387.511-1.106.619-1.617l.028-.14c.018.508.041.632.139 1.136l.273.255c5.911.224 16.1.09 21.503.003z" class="D"/><path d="M274.811 209.118c.156-.156.635-.646.95-.708 3.219-.634 10.152-1.079 12.931-.173.776.253.394 5.466.518 6.866.003 1.765.283 7.981-.875 9.041-4.012-4.796-9.287-10.151-13.524-15.026z" class="B"/><path d="M311.308 278.684a663.98 663.98 0 0 1 21.785-.09l.385-.135v11.671h-21.819-22.346-21.908l.124-6.996 11.905-.005 8.255-.304c2.224-.222 1.402-2.66 2.57-4.098l21.049-.043z" class="C"/><g class="B"><path d="M290.259 278.727l21.049-.043.388 4.333c-7.511-.046-14.957.12-22.428.096l.045 7.016h-21.908l.124-6.996 11.905-.005c2.75-.012 5.518-.032 8.255-.304 2.224-.222 1.402-2.66 2.57-4.098z"/><path d="M333.093 278.594l.385-.135v11.671h-21.819l.02-7.005c6.828.06 14.033-.175 20.978-.157 0-1.187-.119-3.408.436-4.374zm-65.736-137.422l15.828.151 6.184-.178-.034 8.573c-.201 1.418-.147 3.91-.15 5.43l.031 7.913c-5.403.086-15.592.22-21.503-.003l-.273-.255c-.098-.504-.121-.628-.139-1.136.103-.577.158-3.119.195-3.827.29-5.582-.04-11.1-.139-16.668zm-22.021 22.22c2.853.8 7.683.193 10.758.248l6.054.095c1.678.01 2.968-.548 4.779-.038-.177 2.296.526 4.784.418 6.972-.23 4.702-.012 9.968-.376 14.588-2.218-.01-4.238.202-6.446.319-2.159.115-4.891-.103-6.977.12-2.457-2.475-6.215-6.506-8.238-9.233.237-3.76.052-9.228.028-13.071z"/></g><path d="M244.722 157.644c.724-.679 5.678-3.972 6.888-4.867 5.406-3.928 10.598-8.143 15.554-12.626l.193 1.02c.099 5.569.43 11.086.139 16.668-.037.708-.092 3.251-.195 3.827l-.028.14c-.107.51-.259 1.23-.619 1.617l.272.273c-1.811-.511-3.101.048-4.779.038l-6.054-.095c-3.076-.055-7.906.552-10.758-.248.024 3.844.209 9.312-.028 13.071-3.3-3.354-8.402-8.171-10.309-12.263.658-.566.903-.711 1.633-1.142 2.011-1.538 5.874-3.973 8.091-5.414z" class="C"/><path d="M244.722 157.644c.401.82.456 4.485.511 5.644-1.727.047-7.344.366-8.602-.23 2.011-1.538 5.874-3.973 8.091-5.414z" class="B"/><path d="M289.721 117.306c.331 1.585.221 7.008.215 8.958l.031 14.706-.598.174c-1.147.251-4.839.152-6.184.178-5.268.1-10.573-.125-15.828-.151l-.193-1.02c7.852-7.676 11.349-11.454 16.539-21.199 1.884.154 4.338.437 5.902-.719l.116-.927z" class="D"/><path d="M157.046 164.527c6.306 6.389 13.405 13.359 19.251 20.077-.304.473-.426.694-1.088.804-2.895.481-6.468.413-9.416.376-2.912-.036-6.489.056-9.351-.15.222-3.201-.51-19.292.604-21.107z" class="B"/><g class="C"><path d="M200.91 30.59c6.636-.235 15.545-.324 22.166-.117-.005 1.01-.188 6.223.246 6.744.862.291 2.131.337 3.068.413-1.393.195-5.645.13-7.215.137l-14.781.013-15.615-.042c-1.863-.007-6.283.086-7.986-.102.777-.186 3.753-.118 4.715-.091 5.162.147 10.146-.031 15.287-.228l.116-6.727zm120.266 230.101c3.85-.003 8.576.122 12.302-.32v14.389c-4.111-5.288-7.896-9.084-12.302-14.069zM288.29 104.587c1.334 2.617 1.099 9.629 1.431 12.719l-.116.927c-1.564 1.157-4.018.873-5.902.719 1.776-3.424 3.961-10.562 4.587-14.365z"/></g><path d="M0 30.073c.778.681.502 1.844.536 2.87.209 6.338-.313 13.031.018 19.331l.119 3.885C.644 57.953.541 74.142.835 74.663l.144.037.818.216c.224.401.306 20.656-.077 22.05l-.963.091C.14 98.02.595 115.145 0 115.708V30.073z" class="E"/></g></svg>