<svg xmlns="http://www.w3.org/2000/svg" width="830" height="453" xmlns:v="https://vecta.io/nano"><style><![CDATA[.B{fill:#dddddc}.C{fill:#f9f9f8}.D{fill:#ecebeb}.E{fill:#3b3e40}.F{fill:#e0e0e4}.G{fill:#0b3166}]]></style><clipPath id="A"><path d="M0 0h829.83v452.712H0z"/></clipPath><g clip-path="url(#A)"><g class="G"><path d="M-22.083-38.221H1.271h23.451 23.443 23.483 23.42 23.499 23.349 23.531 23.354 23.523 23.425 23.374 23.344 23.392 23.446 23.722l.098 23.263-.244.348c-.115 3.862.055 20.992-.335 22.811l-.902.354c-6.267.554-15.617.276-22.112.241l-.047 23.493c.121 3.25-.456 21.383.476 22.865l1.814.301-1.963.345c-.835 2.368-.36 19.494-.307 23.228l23.414-.048 23.314-.03 23.433.052 23.329-.033 23.754.031 23.297-.048 23.381.031-.009-23.447 23.468-.006 23.357.056 23.375.009 23.623-.057.056 23.438 23.055.054c-.223-22.499.178-28.084 23.746-33.372l-.11-14.06c.035-3.302.461-19.954-.313-22.398l-1.243-.37.002-.225c-6.115-.373-15.435-.078-21.791-.079l-.081-23.501 23.553-.106.143-23.14h46.546 23.46 23.554 23.405 23.389 23.368 23.414 23.291.416 2.565v23.364V8.61v.249 70.098 23.809 23.006 23.427.243 23.101.234V196.2v23.273 32.808 46.811.236 23.414 23.055 23.354.24 22.998 23.477.24 23.019 22.928h-2.548-.374-46.769-23.379-23.423-23.324-23.513-23.412-23.524-23.326-23.392-23.414-23.423-23.56-23.364-23.511-23.32-23.333-47.141-23.385-46.65-.465-22.954-.392-22.928-.46-23.228-23.464-23.346-23.386-23.527-23.534-23.394-23.388H71.66 48.281 24.947 1.27-22.083v-22.837-23.25-23.531-23.18-23.303c7.79.056 15.58-.008 23.368-.189l-.013-23.338c-5.971.401-16.996.001-23.355-.019V299.2v-23.368-23.56-32.729-23.325-23.415-23.555-23.459-23.406-23.401-23.374V8.806v-.397-23.244-23.387z"/><path d="M634.258-38.221h46.546 23.46 23.554 23.405 23.389 23.368 23.414 23.291.416 2.565v23.364V8.61v.249 70.098 23.809 23.006 23.427.243 23.101.234V196.2v23.273 32.808 46.811.236 23.414 23.055 23.354.24 22.998 23.477.24 23.019 22.928h-2.548-.374-46.769-23.379-23.423-23.324-23.513-23.412-23.524-23.326l-.07-22.892.005-23.295c.194-7.581.03-15.844.031-23.478l-.045-23.076c-7.969-.413-15.693.33-23.397.013.351-6.899.068-16.465.077-23.491.104-7.735-.011-15.673-.036-23.424l-.023-23.324-23.317-.098-.003-23.381-.034-1.227c.472-4.965.098-16.746.063-22.03.052-1.919-.928-15.573-1.576-16.533-.179-6.794-.725-9.59-2.58-16.178 1.547.025 2.012.007 3.536-.206 1.166-1.415.58-20.026.551-23.271l23.111.032-.01-23.471.013-23.476-.022-23.411.044-23.159-.04-23.647c-.223-22.499.178-28.084 23.746-33.372l-.11-14.06c.035-3.302.461-19.954-.313-22.398l-1.243-.37.002-.225c-6.115-.373-15.435-.078-21.791-.079l-.081-23.501 23.553-.106.143-23.14h0z"/></g><path d="M797.98-38.221h23.414 23.291.416 2.565v23.364V8.61v.249 70.098 23.809 23.006 23.427.243 23.101.234V196.2v23.273 32.808 46.811.236 23.414 23.055 23.354.24 22.998 23.477.24 23.019 22.928h-2.548-.374-46.769-23.379l.023-22.849-.113-23.187-.424-.027.457-23.506 8.325.257.049 9.983 6.5.008c.392-1.695.251-8.274.248-10.376 2.456.105 6.074.259 8.426-.193-.394-6.73-.12-15.784-.102-22.685l-23.379-.031.004-.482 23.391.089-.008-23.351-.018-23.403-.048-23.279c-.105-3.238.613-21.48-.527-23.371l.464-.153c.483-5.829.162-17.066.182-23.251l-23.417.008c-.283-10.411-.023-22.189-.026-32.704l-23.414-.029.051-23.315-23.284-.042c-.031-4.792.093-10.989-.351-15.654 2.214-2.642 4.7-5.376 6.985-7.984l16.298-18.535 23.432-26.2c.431-.572 1.482-1.634 2.012-2.206 3.971.809 15.954-.007 20.891.269.061-.034.135-.052.184-.103 1.209-1.258.58-20.195.563-23.346l.011-23.414.008-23.451.02-21.388c.025-1.546-.05-1.308.818-2.077 5.692.347 12.311.158 18.072.129 1.475-.091 2.818-.035 4.125-.664.561-2.775.315-19.054.308-23.057l.003-23.328c-7.75.075-15.606-.007-23.364-.022l.007-23.359z" class="D"/><path d="M776.335 125.59c3.971.809 15.954-.007 20.891.269l.73.155c2.748-.491 19.97-.245 23.382-.233l4.173-.019c5.083.623 13.712.36 19.174.3l-.059 22.945c-5.334-.025-11.781-.217-17.03.126 5.334.359 11.73.224 17.149.242-.042 3.375.408 21.592-.671 22.864a55.32 55.32 0 0 1-2.922.557l-19.701-.028-.064 23.416-23.372.014-.011 23.332-23.399.024-23.414-.029.051-23.315-23.284-.042c-.031-4.792.093-10.989-.351-15.654 2.214-2.642 4.7-5.376 6.985-7.984l16.298-18.535 23.432-26.2c.431-.572 1.482-1.634 2.012-2.206z" class="C"/><path d="M821.33 149.099l6.266.033c5.334.359 11.73.224 17.149.242-.042 3.375.408 21.592-.671 22.864a55.32 55.32 0 0 1-2.922.557l-19.701-.028-.064 23.416-23.372.014.008-23.537a578.78 578.78 0 0 0 23.358-.137c.137-7.706-.008-15.696-.051-23.425z" class="B"/><path d="M774.325 149.066c8.205.301 15.488.189 23.678.114l-.008 23.268c-5.654.689-18.046.399-24.006.4-.059-3.205.223-7.583.307-10.899.082-3.272-.495-10.135.031-12.883z" class="D"/><g class="B"><path d="M776.335 125.59c3.971.809 15.954-.007 20.891.269l.73.155.047 23.166c-8.19.076-15.473.187-23.678-.114.568-2.491.417-18.463-.003-21.271.431-.572 1.482-1.634 2.012-2.206zm-1.777 70.587c7.722.12 15.713.017 23.457.02l-.011 23.332-23.399.024-.047-23.376zm-23.668-42.182c.716 3.094.461 14.766.451 18.719-4.057.07-13.024.404-16.749-.184l16.298-18.535z"/></g><path d="M798.089 392.165l.211.225 23.12.054.006 2.709c.366 2.688.553 18.03.196 20.65-.411 2.439-.295 5.204-.279 7.701l-.018.369.092 5.033-.107.323c-4.903 3.214-6.185 4.996-8.678 10.358l32.114-.087v22.556h-46.769-23.379l.023-22.849-.113-23.187-.424-.027.457-23.506c2.711.07 5.636.086 8.325.257l.049 9.983 6.5.008c.392-1.695.251-8.274.248-10.376 2.456.105 6.074.259 8.426-.193z" class="C"/><path d="M798.299 392.39l23.12.054.006 2.709c.366 2.688.553 18.03.196 20.65-.411 2.439-.295 5.204-.279 7.701-2.448-1.942-6.309-6.846-7.835-7.661-.339-1.323-.577-3.121-1.518-3.937-1.253.876-1.363 2.906-2.35 4.246-2.124-.299-9.126-.227-11.614-.26.126-4.11-.293-20.832.274-23.502z" class="B"/><g class="D"><path d="M821.425 395.153c.366 2.688.553 18.03.196 20.65-.411 2.439-.295 5.204-.279 7.701-2.448-1.942-6.309-6.846-7.835-7.661 2.604.217 5.249.055 7.863-.04-.054-6.729-.227-13.975.054-20.65zm-23.336-2.988l.211.225c-.567 2.67-.149 19.392-.274 23.502 2.488.033 9.49-.039 11.614.26-1.568 2.531-8.314 9.988-11.41 9.022-.605-1.644-.284-7.298-.236-9.402-6.95.191-16.981-.264-23.486.248l-.424-.027.457-23.506c2.711.07 5.636.086 8.325.257l.049 9.983 6.5.008c.392-1.695.251-8.274.248-10.376 2.456.105 6.074.259 8.426-.193z"/></g><path d="M774.62 439.206l1.209-.01c6.755.882 16.629-.375 22.153.347l-.006 22.512h-23.379l.023-22.849z" class="B"/><path d="M797.945 426.707c7.131 3.633 9.461 5.76 13.124 12.794-4.188.075-8.951.266-13.088.042-5.524-.722-15.398.534-22.153-.347 7.142-.296 14.897-.147 22.094-.127l.023-12.362z" class="D"/><path d="M821.451 172.768l19.701.028c1.266.076 2.591-.093 3.406.562.603 6.486.017 16.074.11 22.846 0 7.143-.28 16.37.042 23.334l-23.265-.04c-7.639.16-15.763.025-23.442.031-.172-7.526.003-15.749.011-23.332l23.372-.014c.151-7.718.06-15.679.064-23.416z" class="C"/><g class="B"><path d="M821.44 196.191l23.228.014c0 7.143-.28 16.37.042 23.334l-23.265-.04-.006-23.307z"/><path d="M798.004 219.529l23.442-.031.125 32.764a996.1 996.1 0 0 1-23.522-.013l-23.417.008c-.283-10.411-.023-22.189-.026-32.704l23.399-.024z"/></g><g class="C"><path d="M774.605 219.553l23.399-.024.044 32.72-23.417.008c-.283-10.411-.023-22.189-.026-32.704z"/><path d="M821.446 219.498l23.265.04.076 32.73-23.273.003-.143 23.42c-2.462.584-21.046.52-23.505-.192.483-5.829.162-17.066.182-23.251l23.522.013c-.299-10.733-.13-21.993-.125-32.764zM798.83 32.08c5.692.347 12.311.158 18.072.129 1.28.069 3.251-.027 4.175.662.742 5.467.008 16.324.239 22.339l.051 23.781-23.383.005.008-23.451.02-21.388c.025-1.546-.05-1.308.818-2.077z"/></g><g class="B"><path d="M821.316 55.21c6.458.015 17.635.651 23.369.01l.059 23.766-23.377.005-.051-23.781z"/><path d="M797.984 78.996l23.383-.005.012 19.934c-.042 1.057.065 2.502-.544 3.268-3.934.646-18.351.26-22.862.218l.011-23.414z"/></g><path d="M821.379 98.925l.335 3.412c-.679 5.979-.397 17.234-.375 23.444-3.412-.013-20.634-.258-23.382.233l-.73-.155c.061-.034.135-.052.184-.103 1.209-1.258.58-20.195.563-23.346 4.512.042 18.928.427 22.862-.218.608-.765.501-2.211.544-3.268z" class="D"/><path d="M821.395 322.386l23.298-.061.034 23.436c-7.22.285-16.095.187-23.338-.021l.006-23.353z" class="B"/><path d="M797.978 322.303l23.418.083-.006 23.353a743.23 743.23 0 0 1-23.394-.033l-.018-23.403z" class="C"/><g class="B"><path d="M797.995 345.706a743.23 743.23 0 0 0 23.394.033l-.047 23.284-23.34.034-.008-23.351zm23.626 70.096l23.089.018.102 23.298c-7.534-.003-15.917-.168-23.376.173l-.127-10.063.107-.323-.092-5.033.018-.369c-.015-2.497-.132-5.262.279-7.701z"/></g><path d="M821.324 423.872l6.713 2.548-6.622 2.485-.092-5.033z" class="D"/><path d="M821.514 252.272l23.273-.003c-.127 7.109-.28 16.506.008 23.597-7.806-.204-15.62-.262-23.424-.173l.143-23.42z" class="B"/><g class="C"><path d="M844.744 78.986l-.102 23.425-22.929-.075-.335-3.412-.012-19.934 23.377-.005zM821.338-14.84l23.347-.015.051 23.399c-7.738.039-15.679.164-23.401-.056l.003-23.328z"/></g><g class="B"><path d="M797.929 299.024c3.2.057 21.276.066 23.093.505.143.281.428.791.505 1.069l-.132 21.789c-7.637.196-15.745-.007-23.418-.083l-.048-23.279zm23.785-196.687l22.929.075v23.264c-5.215-.005-14.21-.29-19.131.087l-4.173.019c-.021-6.21-.303-17.465.375-23.444z"/></g><g class="C"><path d="M844.727 345.76l-.093 23.298-23.291-.036.047-23.284c7.243.208 16.118.306 23.338.021zm-23.308 46.683l23.283.018.008 23.359-23.089-.018c.357-2.619.17-17.962-.196-20.65l-.006-2.709z"/><path d="M797.987 369.48c6.962.073 16.923-.31 23.403.077l.03 22.886c-7.706.072-15.413.054-23.12-.054l-.211-.225c-.394-6.73-.12-15.784-.102-22.685z"/></g><path d="M821.389 369.557c5.853-.377 17.299-.311 23.313-.034v22.938c-7.653-.133-15.611-.02-23.283-.018-.181-7.457-.041-15.393-.03-22.886z" class="B"/><g class="C"><path d="M821.527 300.597l.535-.946c2.638-.606 18.495-.312 22.606-.544l.025 23.218-23.298.061.132-21.789zm-157.922-59.565c4.103-4.425 12.426-12.892 15.738-17.376.83.968 1.644 2.154 2.4 3.195l18.023 24.926c1.953 2.531 3.569 4.728 5.361 7.373 3.774 5.074 8.134 10.75 11.624 15.999 4.175 5.454 8.211 11.014 12.103 16.674l2.997 3.777 19.285-.019c7.555.002 16.518-.241 23.949.024l19.43-.065c-4.109-6.307-9.154-13.109-13.468-19.401 2.1-.729 13.284-.51 16.355-.488 1.14 1.892.421 20.133.527 23.371l.048 23.279.018 23.403.008 23.351-23.391-.089-.004.482 23.379.031c-.018 6.901-.292 15.955.102 22.685-2.352.452-5.969.298-8.426.193.003 2.102.144 8.681-.248 10.376l-6.5-.008c-.119-3.132-.038-6.807-.049-9.983-2.69-.171-5.614-.187-8.325-.257l-.457 23.506.424.027.113 23.187-.023 22.849h-23.423-23.324-23.513-23.412-23.524-23.326l-.07-22.892.005-23.295c.194-7.581.03-15.844.031-23.478l-.045-23.076c-7.969-.413-15.693.33-23.397.013.351-6.899.068-16.465.077-23.491.104-7.735-.011-15.673-.036-23.424l23.325-.062c.262-7.231.056-15.781.069-23.117 5.858.074 17.436.254 22.892-.369.672-1.114.421-1.829.43-3.312l6.209-.021.04-54.498z"/></g><path d="M663.605 241.032c4.103-4.425 12.426-12.892 15.738-17.376.83.968 1.644 2.154 2.4 3.195l18.023 24.926c1.953 2.531 3.569 4.728 5.361 7.373 3.774 5.074 8.134 10.75 11.624 15.999 4.175 5.454 8.211 11.014 12.103 16.674-.935 1.648-.88 5.225-.94 7.256 7.861.434 15.525-.181 23.328-.031v23.363c-5.034-.036-13.478-.334-18.239-.027l.052 30.867-5.754.048-6.334-7.571c-2.871.219-11.16-.196-12.174.773.087 2.457.579 4.669-.744 6.451-1.315.522-2.377.409-3.775.393.019 3.668-.138 12.801.217 16.057-7.689-.115-16.044-.377-23.696-.003-.007 3.034.12 7.466-.416 10.322-4.092-10.211-12.69-8.597-21.977-8.54l-.942-1.689-3.131-.026a432.74 432.74 0 0 0-20.333-.155c-7.969-.413-15.693.33-23.397.013.351-6.899.068-16.465.077-23.491.104-7.735-.011-15.673-.036-23.424l23.325-.062c.262-7.231.056-15.781.069-23.117 5.858.074 17.436.254 22.892-.369.672-1.114.421-1.829.43-3.312l6.209-.021.04-54.498z" class="B"/><path d="M642.542 318.443c6.986-.034 19 .36 25.447-.24.029 1.35.001 3.059.223 4.36l-.429 1.288c-2.187.953-7.794.46-10.371.423l-.009 8.408 8.316.014-.079 5.748-8.222-.027c-2.337-.031-5.521-.392-7.507.363-.781 1.051-.517 1.121-.496 2.647-.033 1.933-.11 4.019-.061 5.94 3.636.014 16.377.314 19.297-.054.065 1.9.176 3.931.081 5.818-3.582.022-7.794.154-11.324.022l.052 16.343-3.131-.026a432.74 432.74 0 0 0-20.333-.155c-7.969-.413-15.693.33-23.397.013.351-6.899.068-16.465.077-23.491.104-7.735-.011-15.673-.036-23.424l23.325-.062 8.287-.022c.026 2.056-.031 5.512.224 7.443.181-3.419.062-7.834.065-11.327z" class="E"/><path d="M633.966 322.349l8.287-.022.224 7.443.003 9.345-.295 6.56-8.138.086-23.372.074c.104-7.735-.011-15.673-.036-23.424l23.325-.062z" class="B"/><g class="C"><path d="M633.966 322.349l8.287-.022.224 7.443.003 9.345-.295 6.56-8.138.086-.082-23.412z"/><path d="M634.048 345.761l-.052 23.552c-7.969-.413-15.693.33-23.397.013.351-6.899.068-16.465.077-23.491 7.35.215 15.966.021 23.372-.074z"/></g><path d="M642.186 345.675l.295-6.56a455.3 455.3 0 0 1 .044 14.002c4.254 0 10.8-.187 14.883.035l.052 16.343-3.131-.026a432.74 432.74 0 0 0-20.333-.155l.052-23.552 8.138-.086z" class="B"/><g class="C"><path d="M649.324 324.328l8.089-.055-.009 8.408-8.114.034.035-8.387zm31.733-48.663l23.201-.014-.048 23.384a393.17 393.17 0 0 1-23.342.172c-.125 7.705-.128 15.413-.01 23.12-3.643-.016-9.185-.181-12.644.235-.223-1.3-.195-3.01-.223-4.36-2.898-.424-7.496-.276-10.564-.263l-.008-18.63 23.458-.247c.013-7.2-.209-16.35.182-23.397z"/></g><path d="M727.277 318.365c1.679-.052 3.981-.358 5.301.475.686 1.185.485 2.143.425 3.545l.052 30.867-5.754.048-6.334-7.571c-2.871.219-11.16-.196-12.174.773.087 2.457.579 4.669-.744 6.451-1.315.522-2.377.409-3.775.393-.944-.029-.984.025-1.869-.395-.758-1.742-.658-31.335-.212-34.032 1.226-.629 3.577-.579 5.055-.649 1.305 1.44 2.873 3.081 4.087 4.563 3.673-.896 9.958-.198 14.161-.73l.408-3.52 1.373-.219z" class="E"/><g class="B"><path d="M711.335 322.833c3.673-.896 9.958-.198 14.161-.73l.408-3.52c.642 4.312.269 18.097.221 22.86-4.676-6.322-9.885-12.443-14.79-18.61zm-2.516 7.641c3.701 4.925 8.236 10.154 12.148 15.255-2.871.219-11.16-.196-12.174.773l.025-16.028z"/></g><g class="C"><path d="M704.384 299.231l23.521.026c-.025 3.443.323 17.148-.628 19.107l-1.373.219-.408 3.52c-4.204.532-10.489-.166-14.161.73-1.215-1.482-2.782-3.123-4.087-4.563l-2.719-.516c-.517-1.307-.071-15.605-.144-18.523zm-23.527 23.096l20.634.1-.021 23.32c-6.385.293-14.014.194-20.455-.025-.058-6.74.244-16.964-.157-23.396zm-12.205 24.984l.197-.859c1.574-.528 9.792-.534 12.131-.628l-.137 23.33-23.382.34-.052-16.343c3.53.132 7.742 0 11.324-.022.095-1.887-.016-3.918-.081-5.818zm13.092-120.46l18.023 24.926c-2.414 1.035-15.479.555-18.8.505-.046-4.243-.611-22.905.777-25.431zm23.384 32.3c3.774 5.074 8.134 10.75 11.624 15.999-1.681.911-9.954.494-12.437.451-.032-3.222-.328-14.35.814-16.451zm-55.712 82.274c-.021-1.525-.285-1.596.496-2.647 1.986-.755 5.169-.394 7.507-.363l-.082 7.256c-1.903.134-5.512.781-6.961.121-1.074-1.398-.843-2.394-.96-4.368zm14.513-89.175c5.133.222 11.767.037 17.009.037l-.124 23.367-16.878-.041-.007-23.363z"/></g><path d="M633.997 369.313a432.74 432.74 0 0 1 20.333.155l3.131.026.942 1.689c9.288-.057 17.885-1.671 21.977 8.54.066 1.945.191 3.5-.134 5.42.453 2.975.523 4.294.561 7.264l23.353-.014c.145 7.609.445 15.85.252 23.405-.501 7.224-.279 16.084-.258 23.459l.184 22.798h-23.412-23.524-23.326l-.07-22.892.005-23.295c.194-7.581.03-15.844.031-23.478l-.045-23.076z" class="B"/><path d="M704.412 415.798c-.501 7.224-.279 16.084-.258 23.459l.184 22.798h-23.412-23.524l.01-22.82c5.45.513 17.524.033 23.472-.07l.047-23.369c7.825.421 15.655.258 23.481.003z" class="C"/><path d="M704.153 439.257l.184 22.798h-23.412c-.217-7.477-.059-15.326-.01-22.836l23.238.038z" class="B"/><path d="M657.415 415.836l-.003 23.399-.01 22.82h-23.326l-.07-22.892.005-23.295c6.641.263 16.639.248 23.404-.032z" class="C"/><g class="B"><path d="M634.006 439.162c7.091.129 16.915-.296 23.406.072l-.01 22.82h-23.326l-.07-22.892zm-.009-69.849a432.74 432.74 0 0 1 20.333.155l-.261 1.723-.171 9.434a744.44 744.44 0 0 1-.023 22.115l6.227.05-2.026.497c-1.474 2.521-.612 9.202-.661 12.549-6.765.28-16.763.296-23.404.032.194-7.581.03-15.844.031-23.478l-.045-23.076z"/></g><path d="M633.997 369.313a432.74 432.74 0 0 1 20.333.155l-.261 1.723-.171 9.434c-.764 1.252-.435 9.717-.421 11.929l-19.435-.165-.045-23.076z" class="C"/><path d="M654.33 369.468l3.131.026.942 1.689c9.288-.057 17.885-1.671 21.977 8.54.066 1.945.191 3.5-.134 5.42.453 2.975.523 4.294.561 7.264.003 2.045.29 7.077-.683 8.635l.426 1.105c-1.579 1.049-4.067.486-6.16.786-1.333-1.458-5.345-7.715-6.661-9.681l-7.413-.018c.015 2.606.155 7.144-.213 9.556l-6.227-.05c.117-7.371.125-14.743.023-22.115l.171-9.434.261-1.723z" class="G"/><path d="M674.545 392.78c1.426-.576 4.572-.381 6.261-.373.003 2.045.29 7.077-.683 8.635l-5.578-8.263z" class="C"/><path d="M674.545 392.78c-.264-.386-.149-.21-.185-.781 2.928-2.162 4.281-3.612 5.885-6.856.453 2.975.523 4.294.561 7.264-1.689-.008-4.835-.203-6.261.373z" class="B"/><path d="M654.33 369.468l3.131.026.942 1.689-4.333.008.261-1.723z" class="D"/><path d="M660.342 376.39c6.107-.087 19.751.502 11.737 10.292-3.516 1.88-7.777 1.401-11.805 1.372l.069-11.663z" class="B"/><g class="C"><path d="M660.315 393.234l7.413.018c1.316 1.966 5.328 8.224 6.661 9.681 2.41.321 4.013.307 6.414.303l.099 12.566-23.487.034c.049-3.346-.813-10.028.661-12.549l2.026-.497c.369-2.412.228-6.95.213-9.556zm90.925 22.541c5.207.386 19.533-.338 22.844.217l.424.027.113 23.187-.023 22.849h-23.423-23.324-23.513l-.184-22.798c-.021-7.375-.243-16.235.258-23.459 7.561.177 16.182-.24 23.411.159 6.874.433 16.468.047 23.417-.182z"/></g><path d="M751.24 415.775c5.207.386 19.533-.338 22.844.217l.424.027.113 23.187-.023 22.849h-23.423-23.324c-.011-7.542.082-15.399-.264-22.903 7.852.196 15.709.186 23.561-.031l.093-23.346z" class="B"/><path d="M774.62 439.206l-.023 22.849h-23.423l.07-22.743c7.024.333 16.175-.008 23.376-.105z" class="C"/><path d="M704.412 415.798c7.561.177 16.182-.24 23.411.159l-.212 23.252c-7.043.18-16.479.443-23.457.048-.021-7.375-.243-16.235.258-23.459z" class="B"/><path d="M763.972 318.458c3.418-.062 26.915-.57 28.411.461l.14 1.452c1.103 2.773 2.659 1.986 5.454 1.931l.018 23.403.008 23.351-23.391-.089.041-15.763.027-7.513-.027-21.355-10.784.037.104-5.917z" class="E"/><path d="M797.995 345.706l.008 23.351-23.391-.089.041-15.763 7.007.006.022-7.44c4.442.37 11.835.106 16.313-.065z" class="C"/><path d="M792.524 320.371c1.103 2.773 2.659 1.986 5.454 1.931l.018 23.403c-4.478.171-11.871.435-16.313.065l-.076-21.446c3.746-.077 7.058.815 10.156-.406 1.064-1.336.703-1.433.761-3.548z" class="B"/><path d="M774.608 369.449l23.379.031c-.018 6.901-.292 15.955.102 22.685-2.352.452-5.969.298-8.426.193.003 2.102.144 8.681-.248 10.376l-6.5-.008c-.119-3.132-.038-6.807-.049-9.983-2.69-.171-5.614-.187-8.325-.257l-6.51-.265c-.005 2.495.121 7.987-.352 10.164-1.361.612-5.273.709-6.419-.394.592-8.246.177-22.116.178-30.794 2.081.019 3.817.118 5.862-.35-.161-.521-.132-.243.095-.847 1.861-.594 5.153-.508 7.214-.551z" class="G"/><path d="M774.608 369.449l23.379.031c-.018 6.901-.292 15.955.102 22.685-2.352.452-5.969.298-8.426.193.003 2.102.144 8.681-.248 10.376-.372-1.998-.307-8.692-.312-10.969l.02-20.652-6.257.039-.07 12.805-8.266-.039c.178-4.444.06-9.946.079-14.468z" class="B"/><path d="M767.299 370.847c-.161-.521-.132-.243.095-.847 1.861-.594 5.153-.508 7.214-.551-.019 4.522.099 10.024-.079 14.468l-6.966.038c.026-3.674.243-9.657-.264-13.108z" class="D"/><path d="M767.518 389.237c3.741-.012 11.458-.206 14.855.271.654.864.484 2.067.493 3.234-2.69-.171-5.614-.187-8.325-.257l-6.51-.265c-.005 2.495.121 7.987-.352 10.164-.348-3.707-.172-9.295-.159-13.148z" class="F"/><g class="B"><path d="M751.157 345.682c7.363.279 16.061.035 23.523.009l-.027 7.513a530.94 530.94 0 0 0-.041 15.763l-.004.482c-2.061.043-5.353-.042-7.214.551-.227.604-.257.326-.095.847-2.045.468-3.781.369-5.862.35-.002 8.678.414 22.547-.178 30.794-1.273-5.32.499-28.111-.82-31.99-1.78-.488-7.09-.346-9.184-.346l-.098-23.972zm-23.623 46.72l23.711-.003-.005 23.375c-6.949.228-16.543.615-23.417.182.15-7.433-.204-15.999-.289-23.555z"/></g><path d="M725.286 371.178l8.134.059c.047 1.59.269 3.589-.338 4.97l-.691.323c-1.886.25-2.966.352-4.864.38.023 2.732.268 13.132-.141 15.058-1.048.899-2.704.826-4.147.883l-.007 9.83-6.316.06-.008-10.372.043-16.047-10.237.139.015-5.276 18.558-.008z" class="G"/><path d="M723.224 376.421l9.165.11c-1.886.25-2.966.352-4.864.38.023 2.732.268 13.132-.141 15.058-1.048.899-2.704.826-4.147.883l-.013-16.431z" class="F"/><path d="M704.414 369.284c5.695.356 11.449-.174 17.143.2 2.424.16 2.373.154 3.729 1.693l-18.558.008-.015 5.276 10.237-.139-.043 16.047c-4.167.104-8.56.03-12.746.024-.088-7.704-.003-15.409.255-23.109z" class="B"/><path d="M751.137 295.582c7.555.002 16.518-.241 23.949.024-.327.784-.345 2.365-.694 3.511-6.852.33-15.623.066-22.674.078-.704-.964-.549-2.332-.581-3.613z" class="F"/><path d="M704.265-38.221h23.554 23.405 23.389 23.368l-.007 23.359 23.364.022-.003 23.328c.007 4.003.253 20.282-.308 23.057-1.306.629-2.649.573-4.125.664-5.761.029-12.38.218-18.072-.129-.868.769-.792.531-.818 2.077-.119 7.088-.044 14.301-.02 21.388l-.008 23.451-.011 23.414c.017 3.151.646 22.088-.563 23.346-.049.051-.123.069-.184.103-4.937-.276-16.92.54-20.891-.269 3.608-4.294 7.705-8.683 11.421-12.985l-13.168-.01-23.724-.007.315-10.171.048-23.426c-7.816.118-15.844.014-23.676.003l.029-23.469-23.36.009c.214-7.778.227-15.561.039-23.34l-23.077.06c-.583-2.637-.406-19.651-.396-23.465a643.81 643.81 0 0 1 .2-23.65l23.21.008.069-23.368h0z" class="B"/><path d="M751.215 32.127c5.225.141 10.713.056 15.959.056 2.507.034 4.935.096 7.442-.065l-.013 23.113-.095 23.792 23.476-.028-.011 23.414c.017 3.151.646 22.088-.563 23.346-.049.051-.123.069-.184.103-4.937-.276-16.92.54-20.891-.269 3.608-4.294 7.705-8.683 11.421-12.985l-13.168-.01-23.724-.007.315-10.171.048-23.426c-7.816.118-15.844.014-23.676.003l.029-23.469c7.311.335 16.282.064 23.634-.031l.002-23.367z" class="C"/><path d="M751.179 102.416c7.522.011 15.987-.155 23.431.164l-.022 10.014-23.724-.007.315-10.171z" class="B"/><g class="C"><path d="M704.265-38.221h23.554c-.038 6.885-.48 16.818-.072 23.395-7.755-.008-15.633.06-23.375-.034-.103 7.589.104 16.388-.216 23.803 15.579-.484 31.413-.048 47.057-.201l-.044 23.166c-6.605.306-16.902.562-23.408-.066l-.18 23.683-23.36.009c.214-7.778.227-15.561.039-23.34l-23.077.06c-.583-2.637-.406-19.651-.396-23.465a643.81 643.81 0 0 1 .2-23.65l23.21.008.069-23.368h0z"/><path d="M751.223-38.221h23.389 23.368l-.007 23.359-.017 31.949c0 2.565-.126 12.793.302 14.579-3.663.878-19.633.632-23.683.187l.037-23.179c-7.802.117-15.605.11-23.407-.023l.017-46.873z"/></g><g class="B"><path d="M634.258-38.221h46.546 23.46l-.069 23.368-23.21-.008a643.81 643.81 0 0 0-.2 23.65c-.01 3.814-.187 20.828.396 23.465l23.077-.06c.188 7.779.175 15.562-.039 23.34l23.36-.009-.029 23.469 23.676-.003-.048 23.426-.315 10.171c-7.406-.018-15.723-.208-23.051.108-1.053 1.677-10.758 12.768-12.24 13.96l-10.457 11.695c-1.672 1.931-8.893 10.457-10.34 11.674l-12.7 14.229c-.831 1.043-7.269 8.432-8.118 9.124-1.771 2.012-8.494 9.881-10.185 11.248-.528-2.198-.275-17.168-.263-20.45l.02-41.747-.031-55.088c-.011-8.499-.398-21.971.217-30.143l-6.05 1.725c-6.489 1.731-17.536 4.521-23.567 6.737l-.11-14.06c.035-3.302.461-19.954-.313-22.398l-1.243-.37.002-.225c-6.115-.373-15.435-.078-21.791-.079l-.081-23.501 23.553-.106.143-23.14h0z"/><path d="M704.22 55.534l23.36-.009-.029 23.469 23.676-.003-.048 23.426-.315 10.171c-7.406-.018-15.723-.208-23.051.108-1.053 1.677-10.758 12.768-12.24 13.96l-10.457 11.695c-1.672 1.931-8.893 10.457-10.34 11.674l-12.7 14.229c-1.507-1.169-1.046-12.656-1.043-15.151-5.613-.073-11.472.031-17.105.051l-.014-23.326c5.75.098 11.128.223 16.878-.068l.085-23.361.002-23.397 23.361-.035-.021-23.432z"/></g><g class="C"><path d="M680.878 102.398l23.523.024-.214 23.346-23.371.164a632.04 632.04 0 0 0 .278 23.204c2.862-.001 11.674-.309 13.682.889l-12.7 14.229c-1.507-1.169-1.046-12.656-1.043-15.151-5.613-.073-11.472.031-17.105.051l-.014-23.326c5.75.098 11.128.223 16.878-.068l.085-23.361zm23.559-23.427l23.114.022c.27 7.196.012 16.066.004 23.394l-23.035-.034-.083-23.382zm46.742 23.445l-.315 10.171c-7.406-.018-15.723-.208-23.051.108-.419-2.204-.299-7.666-.093-9.96 7.329-.384 15.926-.17 23.459-.319z"/><path d="M704.272 125.763c2.702.133 9.391-.422 11.301.893l-10.457 11.695c-.951-1.382-.807-10.313-.844-12.588zM634.258-38.221h46.546l.057 23.326-23.448.036-.008 23.502c-5.929-.704-16.468.241-23.379-.281l.089-23.444.143-23.14h0zm46.646 93.769l23.316-.014.021 23.432-23.361.035-.002 23.397c-5.076-.213-11.762-.007-16.953.006l.002-23.448 16.879.036.099-23.444zm-23.451-23.332c3.749.006 19.994-.256 23.023.212.477 1.393.424 2.049.447 3.484-.338 5.95-.136 13.429-.044 19.45l-16.947.219c.011-2.718.216-16.402-.215-18.384l-6.05 1.725c-.256-1.715-.197-4.868-.214-6.706zm6.472 140.573c2.294.025 8.37-.224 10.034.588-1.771 2.012-8.494 9.881-10.185 11.248.308-2.712.149-8.867.151-11.836zm-76.667 23.374l23.111.032-.018 56.087-23.025.069c.052-1.919-.928-15.573-1.576-16.533-.179-6.794-.725-9.59-2.58-16.178 1.547.025 2.012.007 3.536-.206 1.166-1.415.58-20.026.551-23.271zm.04 79.446l23.069.171.012 19.74c7.723.24 15.942.088 23.706.064l23.273-.032c-.008 1.483.242 2.198-.43 3.312-5.456.623-17.034.443-22.892.369-.013 7.336.194 15.887-.069 23.117-7.619.172-15.667.043-23.325.062l-.023-23.324-23.317-.098-.003-23.381z"/></g><path d="M610.378 295.52c7.723.24 15.942.088 23.706.064l-.211 3.016c-1.063.847-19.924.749-22.494.414-.837-.77-.772-2.111-1.001-3.494z" class="F"/><path d="M720.068 189.002c2.408-2.829 5.055-5.704 7.539-8.489.443 4.665.319 10.862.351 15.654l23.284.042-.051 23.315 23.414.029.026 32.704c-2.479.02-7.908-.077-10.145.179-4.756-6.307-9.685-13.573-14.139-20.145-2.655-3.419-6.248-8.894-8.809-12.57-6.767-8.771-15.005-21.387-21.47-30.719z" class="B"/><path d="M741.538 219.721c3.156-.265 6.397-.205 9.57-.207-.013 2.704.348 10.902-.761 12.777-2.655-3.419-6.248-8.894-8.809-12.57z" class="C"/><g class="B"><path d="M587.327 252.351l23.025-.069.015 23.497-23.069-.171-.034-1.227c.472-4.965.098-16.746.063-22.03zm210.721-.101c-.02 6.184.302 17.421-.182 23.251l-.464.153c-3.071-.022-14.256-.241-16.355.488-.834-.668-6.418-9.232-7.428-10.767 1.219-1.859.989-10.378 1.012-13.116l23.417-.008z"/></g><path d="M764.486 252.436c2.237-.257 7.666-.159 10.145-.179-.023 2.738.207 11.257-1.012 13.116-3.163-4.126-6.174-8.643-9.133-12.937z" class="C"/><path d="M563.619 55.596l23.623-.057.056 23.438 23.055.054.04 23.647-.044 23.159.022 23.411-.013 23.476.01 23.471-23.111-.032c.029 3.245.615 21.856-.551 23.271-1.524.213-1.989.231-3.536.206 1.855 6.588 2.401 9.384 2.58 16.178.648.96 1.627 14.614 1.576 16.533.035 5.284.409 17.065-.063 22.03l.034 1.227.003 23.381 23.317.098.023 23.324.036 23.424c-.009 7.026.273 16.591-.077 23.491 7.705.318 15.429-.426 23.397-.013l.045 23.076-.031 23.478-.005 23.295.07 22.892h-23.392-23.414-23.423-23.56-23.364-23.511-23.32-23.333-47.141l.049-22.801c.171-7.46.008-15.555.006-23.067l.352-.389-.263-.298c-.443-6.177-.149-16.443-.154-22.845l-.223-.163c-7.023-.313-16.022-.068-23.146-.074-.202-7.425-.023-15.627-.016-23.113l-3.673-.189c-4.982.603-14.348.398-19.664.372l-23.363-.024-.02-23.787c-.026-4.948.223-19.085-.335-23.304l.277-.196 5.1.072c6.791-5.792 15.288-5.218 22.822-1.069l1.193.918c4.891.662 12.904.363 17.69.302.016-3.593.533-24.119-.778-26.348 7.384-.29 17.409.849 24.274-1.126 7.559-3.216 9.841-8.22 10.232-16.019-.297-3.941-.015-11.934.009-16.207l.015-29.018.138-107.793c-.032-9.092-1.838-15.407-10.508-19.375l-.02-4.098c.204-7.529.043-15.824.058-23.414l23.329-.033 23.754.031 23.297-.048 23.381.031-.009-23.447 23.468-.006 23.357.056 23.375.009z" class="G"/><path d="M587.301 298.99l23.317.098.023 23.324.036 23.424c-.009 7.026.273 16.591-.077 23.491 7.705.318 15.429-.426 23.397-.013l.045 23.076-.031 23.478-.005 23.295.07 22.892h-23.392-23.414-23.423-23.56-23.364-23.511-23.32-23.333-47.141l.049-22.801c.171-7.46.008-15.555.006-23.067l.352-.389-.263-.298c-.443-6.177-.149-16.443-.154-22.845 2.637-.716 19.571-.248 23.5-.233l23.642.008-.008-22.954c3.728.251 18.614.375 21.912-.121l1.081-.401c.846-2.292.269-12.961.167-16.021 4.055-1.097 6.358-2.946 7.914-6.819 4.647-.381 10.904-.315 15.673-.402l-.03-23.308c2.585-.013 16.396-.267 18.073.356 2.159-2.013 3.414-2.635 6.065-3.935 4.67-1 13.732-1.191 17.161 2.683 1.657 1.208 3.356.944 5.551.935l23.26-.094c1.887.021 3.707.37 5.058-.555.427-1.332.451-1.993.574-3.35 1.946-.034 4.142-.124 6.067-.066l2.477 4.019 9.478-.017.078-23.39z" class="B"/><g class="C"><path d="M423.108 392.421l23.642.008 23.297-.019.008 23.41-.07 23.313c-7.739.155-15.481.194-23.221.115l-.006 22.806h-47.141l.049-22.801c.171-7.46.008-15.555.006-23.067l.352-.389-.263-.298c-.443-6.177-.149-16.443-.154-22.845 2.637-.716 19.571-.248 23.5-.233z"/><path d="M423.108 392.421l23.642.008 23.297-.019.008 23.41a336.01 336.01 0 0 1-23.313.037l-46.718-.06-.263-.298c-.443-6.177-.149-16.443-.154-22.845 2.637-.716 19.571-.248 23.5-.233z"/></g><g class="B"><path d="M470.047 392.41l.008 23.41a336.01 336.01 0 0 1-23.313.037l.008-23.429 23.297-.019z"/><path d="M400.025 415.797l46.718.06.007 23.455c-14.613.237-32.563.29-47.083-.059.171-7.46.008-15.555.006-23.067l.352-.389z"/></g><path d="M610.599 369.326c7.705.318 15.429-.426 23.397-.013l.045 23.076-.031 23.478-.005 23.295.07 22.892h-23.392-23.414l.037-22.816-.088-23.405.091-23.461c1.833-.115 2.63-.07 4.28-.889-1.385-4.898-.454-10.162 2.527-14.287s7.687-6.662 12.773-6.883c1.78-.139 2.094-.305 3.71-.986z" class="C"/><path d="M610.599 369.326c7.705.318 15.429-.426 23.397-.013l.045 23.076-.031 23.478c-7.466-.155-15.729.008-23.314-.055-7.006.339-16.33.118-23.478.02l.091-23.461c1.833-.115 2.63-.07 4.28-.889-1.385-4.898-.454-10.162 2.527-14.287s7.687-6.662 12.773-6.883c1.78-.139 2.094-.305 3.71-.986z" class="G"/><path d="M623.425 392.183a179.9 179.9 0 0 0 10.617.206l-.031 23.478c-7.466-.155-15.729.008-23.314-.055.048-4.26.069-8.32.406-12.578 5.777-1.238 10.465-5.443 12.322-11.051z" class="C"/><g class="B"><path d="M591.59 391.483c2.389 8.449 10.928 13.591 19.513 11.752-.337 4.259-.358 8.318-.406 12.578-7.006.339-16.33.118-23.478.02l.091-23.461c1.833-.115 2.63-.07 4.28-.889zm19.009-22.157c7.705.318 15.429-.426 23.397-.013l.045 23.076a179.9 179.9 0 0 1-10.617-.206c1.721-5.197.776-10.909-2.525-15.277a16.65 16.65 0 0 0-14.01-6.594c1.78-.139 2.094-.305 3.71-.986z"/></g><path d="M598.583 392.599a10.69 10.69 0 0 1 12.105-15.98c3.278.99 5.883 3.491 7.006 6.726a10.69 10.69 0 0 1-6.564 13.595 10.69 10.69 0 0 1-12.547-4.341z" class="C"/><path d="M610.688 376.619c3.278.99 5.883 3.491 7.006 6.726a10.69 10.69 0 0 1-6.564 13.595c-.406-.918-.403-3.387-.452-4.536l.01-15.785z" class="B"/><path d="M610.678 392.404c1.425.066 4.525.079 5.686.561a10.69 10.69 0 0 1-5.234 3.975c-.406-.918-.403-3.387-.452-4.536z" class="D"/><g class="B"><path d="M598.583 392.599l12.095-.195c.048 1.148.046 3.617.452 4.536a10.69 10.69 0 0 1-12.547-4.341zm12.114 23.214l23.314.055-.005 23.295.07 22.892h-23.392l.007-22.847.006-23.395z"/></g><path d="M634.006 439.162l.07 22.892h-23.392l.007-22.847c7.401.391 15.857.112 23.315-.045z" class="C"/><g class="B"><path d="M587.307 439.238a705.95 705.95 0 0 0 23.384-.031l-.007 22.847H587.27l.037-22.816zm-93.818-93.526c5.445.064 11.493.259 16.888.103l-1.442 3.473c3.012 2.026 5.073 2.904 8.63 3.84-1.257 1.822-.749 13.088-.731 16.058l16.456.092c-.091.459-.323 1.47-.35 1.885.211 6.996.114 14.232.097 21.252a532.22 532.22 0 0 1-16.094.002l-23.482-.02-23.413.014-23.297.019-.008-22.954c3.728.251 18.614.375 21.912-.121l1.081-.401c.846-2.292.269-12.961.167-16.021 4.055-1.097 6.358-2.946 7.914-6.819 4.647-.381 10.904-.315 15.673-.402z"/></g><g class="C"><path d="M493.489 345.712l-.094 23.518c-7.513-.016-15.889-.206-23.332.069-.02 6.927-.343 16.398-.015 23.111l-23.297.019-.008-22.954c3.728.251 18.614.375 21.912-.121l1.081-.401c.846-2.292.269-12.961.167-16.021 4.055-1.097 6.358-2.946 7.914-6.819 4.647-.381 10.904-.315 15.673-.402zm-.018 23.7c7.816-.169 15.633-.228 23.449-.174l.021 23.178-23.482-.02.011-22.984z"/></g><path d="M587.301 298.99l23.317.098.023 23.324.036 23.424c-.009 7.026.273 16.591-.077 23.491-1.616.681-1.93.847-3.71.986-5.086.222-9.791 2.757-12.773 6.883s-3.912 9.389-2.527 14.287c-1.65.82-2.447.775-4.28.889.203-7.157-.008-15.701-.328-22.852-7.054-.037-16.405.129-23.256-.37l.189-23.425c-.623-4.108-.35-18.511-.347-23.376 1.887.021 3.707.37 5.058-.555.427-1.332.451-1.993.574-3.35 1.946-.034 4.142-.124 6.067-.066l2.477 4.019 9.478-.017.078-23.39z" class="E"/><defs><linearGradient id="B" gradientUnits="userSpaceOnUse" x1="737.145" y1="450.116" x2="717.737" y2="505.909"><stop offset="0" stop-color="#d0d0d0"/><stop offset="1" stop-color="#fff"/></linearGradient></defs><path fill="url(#B)" transform="matrix(.849365 0 0 .849365 -22.0835 -38.2214)" d="M740.618 449.893l.336.169.355 1.599c1.237.7 2.221.525 3.671.508-.011 8.272.322 19.534-.091 27.657-1.903.802-2.272.997-4.368 1.161-5.988.261-11.527 3.246-15.038 8.104a19.61 19.61 0 0 0-2.975 16.821c-1.943.965-2.881.912-5.039 1.047.239-8.426-.009-18.486-.386-26.905-8.305-.043-19.315.152-27.38-.436l.223-27.579c1.91.164 4.001.385 5.9.434.01 2.192-.106 6.471.333 8.451l7.791-.028-.042-8.699 10.007-.411c.76 1.334 2.133 3.932 2.932 5.11 4.3-.095 4.228-1.406 6.252-4.971 3.12.594 6.751.273 9.962.144l.031 8.694 7.643-.004-.117-10.866z"/><path d="M575.791 345.859l8.5-.349 2.49 4.34c.886 5.427.127 13.478.212 19.213-4.388-.045-19.835-.437-23.268.087l.189-23.425c1.622.139 3.398.327 5.011.369.008 1.862-.09 5.496.283 7.178l6.617-.024-.036-7.389z" class="C"/><path d="M587.301 298.99l23.317.098.023 23.324.036 23.424c-1.232.014-2.067.163-3.118-.431l-.302-1.358-.285-.144-.058-25.495-5.929.061-2.666 4.443c-3.036-.346-7.976-.404-11.096-.531l.078-23.39z" class="B"/><path d="M610.641 322.411l.036 23.424c-1.232.014-2.067.163-3.118-.431l-.302-1.358c.726-5.997-.55-14.54.281-20.787.681-.682 1.948-.657 3.103-.848z" class="C"/><path d="M563.569 322.348c1.887.021 3.707.37 5.058-.555.427-1.332.451-1.993.574-3.35.332 2.819.363 32.226.008 34.827-.373-1.682-.274-5.316-.283-7.178-1.613-.042-3.389-.229-5.011-.369-.623-4.108-.35-18.511-.347-23.376z" class="B"/><path d="M587.223 322.38c3.12.127 8.06.185 11.096.531-3.033 5.609-6.434 12.25-9.894 17.465-.983-.659-.75-.655-1.364-1.881.544-3.205.198-12.438.162-16.115z" class="C"/><g class="B"><path d="M587.223 322.38c.036 3.677.382 12.91-.162 16.115-3.236-4.996-6.375-10.868-9.316-16.098l9.478-.017zm-11.501 8.349a513.41 513.41 0 0 1 8.569 14.781l-8.5.349-.07-15.13z"/></g><path d="M600.482 330.596l.07 15.154c-2.727.11-5.811.382-8.461-.122l8.391-15.032z" class="C"/><path d="M517.597 318.824c4.67-1 13.732-1.191 17.161 2.683 1.657 1.208 3.356.944 5.551.935.087 6.77.496 16.754.008 23.261l-3.937-.386c-3.348 8.472-10.693 8.877-18.817 7.811-3.556-.936-5.618-1.814-8.63-3.84.505-1.131.973-2.324 1.442-3.473-5.395.156-11.443-.039-16.888-.103l-.03-23.308c2.585-.013 16.396-.267 18.073.356 2.159-2.013 3.414-2.635 6.065-3.935z" class="E"/><path d="M493.459 322.404c2.585-.013 16.396-.267 18.073.356-9.132 16.547 15.721 14.024 17.892 20.394-.034 3.175-2.326 5.117-5.425 4.948-4.335-.235-8.346-2.213-12.252-3.942l-.685.412-.685 1.243c-5.395.156-11.443-.039-16.888-.103l-.03-23.308z" class="C"/><path d="M534.758 321.508c1.657 1.208 3.356.944 5.551.935.087 6.77.496 16.754.008 23.261l-3.937-.386c.352-12.153-9.109-10.459-17.522-14.076-3.612-1.553-2.676-6.355 1.674-7.099 4.92-.842 7.918.127 12.176 2.676l2.049-5.311z" class="B"/><g class="C"><path d="M540.279 415.903c7.355.042 16.437.339 23.657.015a690.71 690.71 0 0 0-.189 23.244 684.05 684.05 0 0 1-23.538.061l.079 22.831h-23.364l-.008-22.698c6.778.081 16.773.412 23.312-.123a653.25 653.25 0 0 0 .053-23.33zm23.29-93.555c-.003 4.865-.276 19.268.347 23.376-7.774.632-15.761-.044-23.534.158-.129 5.331-.54 18.952-.033 23.665-.282.617-.66 1.56-1.073 2.069-1.666-.806-4.388-.505-6.337-.454.027-.414.259-1.426.35-1.885l-16.456-.092c-.018-2.97-.526-14.236.731-16.058 8.124 1.066 15.469.661 18.817-7.811l3.937.386c.488-6.507.079-16.49-.008-23.261l23.26-.094z"/></g><path d="M533.288 369.278l7.06.27c-.282.617-.66 1.56-1.073 2.069-1.666-.806-4.388-.505-6.337-.454.027-.414.259-1.426.35-1.885z" class="F"/><path d="M540.348 369.548c2.707-.149 13.218-.96 15.08.536l.057 1.123 6.028-.057c-.003 9.865.373 22.072.014 31.661-1.627-.033-3.837-.015-5.404-.178l-8.697-10.552c-2.774.392-5.294.365-8.085.401l-.02 10.141c-1.64.05-4.733.056-6.25.266l-.035-10.475-.097-21.252c1.949-.051 4.672-.352 6.337.454.413-.509.791-1.452 1.073-2.069z" class="G"/><g class="C"><path d="M540.348 369.548c2.707-.149 13.218-.96 15.08.536l.057 1.123c-.589 5.313-.256 15.155-.139 20.718-2.83-3.544-14.825-17.655-16.07-20.307.413-.509.791-1.452 1.073-2.069zm-.998 12.186c2.281 3.298 5.529 7.158 8.075 10.348-2.774.392-5.294.365-8.085.401l.01-10.749zm24.141 10.668l23.819-.03-.091 23.461c-7.298-.225-15.813.002-23.208.009l-.52-23.441zm-93.444.008l23.413-.014-.003 23.444c-6.954-.312-16.259-.021-23.402-.02.136-7.671.002-15.712-.008-23.41z"/><path d="M493.457 415.84c7.3.373 16.033.224 23.436.217l.008 23.065a601.27 601.27 0 0 1-23.419.049l-.025-23.332zm93.85 23.398l-.037 22.816h-23.423l.109-22.792c4.288.385 18.887.228 23.352-.025z"/><path d="M470.109 439.31l23.385.101-.082 22.643h-23.32l.018-22.744zm46.832-46.894a532.22 532.22 0 0 0 16.094-.002l.035 10.475c1.823.422 5.136.273 7.117.261l.012 12.632c-7.672.142-15.593.056-23.285.068l.028-23.434z"/></g><path d="M446.751 78.999l23.297-.048.013 23.397a371.76 371.76 0 0 0 .082 15.388c-5.4 2.732-7.952 4.494-12.677 8.302-3.702.039-7.063-.082-10.765-.243-.009 3.261-.194 9.497.263 12.481-1.926 3.575-3.836 7.112-5 11.026-2.773 7.853-2.903 15.323-2.285 23.506l-16.588-.044.076 23.452-12.79-.059v23.38l12.662-.021.188 56.093c3.759.026 18.543.507 20.945-.647.513.347 2.414 1.584 2.749 1.926 6.677 4.337 15.227 9.298 22.839 11.779 8.652 3.245 14.441 4.631 23.6 6.324 5.853 1.08 12.902 1.285 18.933 1.545 2.405 1.629 3.858-1.178 4.842 2.263-.391 3.036-.81 17.815.461 20.025-2.651 1.3-3.906 1.922-6.065 3.935-1.677-.623-15.488-.369-18.073-.356l.03 23.308c-4.769.087-11.026.02-15.673.402-1.555 3.872-3.859 5.721-7.914 6.819.102 3.059.679 13.729-.167 16.021l-1.081.401c-3.298.496-18.184.372-21.912.121l.008 22.954a2069.44 2069.44 0 0 1-23.642-.008c-3.929-.015-20.863-.483-23.5.233l-.223-.163c-7.023-.313-16.022-.068-23.146-.074-.202-7.425-.023-15.627-.016-23.113l-3.673-.189c-4.982.603-14.348.398-19.664.372l-23.363-.024-.02-23.787c-.026-4.948.223-19.085-.335-23.304l.277-.196 5.1.072c6.791-5.792 15.288-5.218 22.822-1.069l1.193.918c4.891.662 12.904.363 17.69.302.016-3.593.533-24.119-.778-26.348 7.384-.29 17.409.849 24.274-1.126 7.559-3.216 9.841-8.22 10.232-16.019-.297-3.941-.015-11.934.009-16.207l.015-29.018.138-107.793c-.032-9.092-1.838-15.407-10.508-19.375l-.02-4.098c.204-7.529.043-15.824.058-23.414l23.329-.033 23.754.031z" class="B"/><defs><linearGradient id="C" gradientUnits="userSpaceOnUse" x1="484.226" y1="486.951" x2="520.361" y2="423.986"><stop offset="0" stop-color="#d6d5d5"/><stop offset="1" stop-color="#fff"/></linearGradient></defs><path fill="url(#C)" transform="matrix(.849365 0 0 .849365 -22.0835 -38.2214)" d="M419.875 424.399c7.995-6.819 17.999-6.144 26.869-1.259l1.405 1.081c5.759.779 15.192.427 20.827.356l-.029 27.409 18.343.066c.014 1.466-.235 2.255.473 3.314l.049-35.465c9.641-.23 20.103-.004 29.806.019.012 2.175-.106 4.488-.181 6.674 1.882-2.291 3.59-1.733 6.522-1.73.365 6.058-.167 23.531.414 27.503.323 9.038.073 18.174-.083 27.223 6.913-.072 21.331-.623 27.679-.092 7.676.851 18.132-.565 25.8.361-3.883.584-21.409.438-25.798.142l.01 27.025a2436.46 2436.46 0 0 1-27.835-.009c-4.626-.018-24.563-.569-27.668.274l-.262-.192c-8.269-.369-18.863-.08-27.251-.087-.238-8.742-.027-18.399-.019-27.212l-4.324-.222c-5.866.71-16.893.468-23.152.438l-27.506-.028-.024-28.006c-.031-5.826.263-22.47-.395-27.437l.326-.231 6.004.085z"/><path d="M334.544 322.248c6.791-5.792 15.288-5.218 22.822-1.069l1.193.918c4.891.662 12.904.363 17.69.302l-.025 23.28-17.533.294c-1.563 3.365-2.416 4.34-5.657 6.263l-.135 16.84c6.05-.038 13.746-.278 19.651.038-4.982.603-14.348.398-19.664.372l-23.363-.024-.02-23.787c-.026-4.948.223-19.085-.335-23.304l.277-.196 5.1.072z" class="E"/><path d="M329.167 322.372l.277-.196 5.1.072c-4.147 6.138-2.915 11.494 4.002 14.579 3.787 1.689 12.252 2.482 13.507 6.619-.313 8.346-14.105 3.002-18.018.499-.899 1.84-1.771 3.57-2.511 5.488 6.69 4.243 13.921 5.455 21.511 2.804l-.135 16.84c6.05-.038 13.746-.278 19.651.038-4.982.603-14.348.398-19.664.372l-23.363-.024-.02-23.787c-.026-4.948.223-19.085-.335-23.304z" class="D"/><path d="M357.365 321.179l1.193.918c4.891.662 12.904.363 17.69.302l-.025 23.28-17.533.294c.682-6.466-.7-8.812-6.577-11.476.599-1.82.393-6.612.634-9.106.807.471 1.084.56 1.972.871 1.822-1.018 1.938-2.813 2.645-5.084z" class="B"/><path d="M352.114 334.498c-4.398-1.542-10.967-1.737-13.502-6.016-.516-5.701 10.544-4.57 14.136-3.09-.241 2.494-.036 7.286-.634 9.106z" class="D"/><path d="M358.691 345.974l17.533-.294.093 23.463c3.017.093 21.323.414 23.423-.012.027 3.396.488 21.581-.355 23.36-7.023-.313-16.022-.068-23.146-.074-.202-7.425-.023-15.627-.016-23.113l-3.673-.189c-5.905-.316-13.601-.076-19.651-.038l.135-16.84c3.24-1.923 4.094-2.898 5.657-6.263z" class="C"/><path d="M392.247 318.428c8.189-.195 17.075-.003 25.316.016.01 1.847-.09 3.812-.154 5.669-4.561.524-13.551-.029-18.458.076l.093 8.529c5.282.015 11.419-.099 16.633.1l.007 5.63-16.785.008.023 8.905 19.385.009.014 5.812c-3.5-.026-24.393.5-25.778-.691-.381-1.711-.354-2.213-.339-3.942l.042-30.123z" class="E"/><path d="M399.74 369.131c.421-.201 20.916.381 23.243.421.071 1.193.156 3.629.358 4.712.006 5.797.131 12.443-.234 18.157-3.929-.015-20.863-.483-23.5.233l-.223-.163c.843-1.779.382-19.964.355-23.36z" class="D"/><path d="M423.341 374.264c.027-1.747-.043-2.848.497-4.518 3.436-.511 18.974-.338 22.903-.272l.008 22.954a2069.44 2069.44 0 0 1-23.642-.008c.364-5.714.24-12.36.234-18.157z" class="B"/><path d="M452.926 323.101c5.316-5.261 10.08-5.649 17.192-4.57 2.691.854 3.949 1.226 6.481 2.616 3.296 2.511 12.526 1.326 16.861 1.256l.03 23.308c-4.769.087-11.026.02-15.673.402-1.555 3.872-3.859 5.721-7.914 6.819.102 3.059.679 13.729-.167 16.021l-1.081.401c-6.513-.787-15.394.416-21.914-.307-5.392-.451-17.638.017-23.51.078.133-7.686.345-15.446.07-23.122l23.458-.129-.02-23.289c1.677.019 4.786-.126 6.188.516z" class="C"/><path d="M452.926 323.101c5.316-5.261 10.08-5.649 17.192-4.57 2.691.854 3.949 1.226 6.481 2.616 3.296 2.511 12.526 1.326 16.861 1.256l.03 23.308c-4.769.087-11.026.02-15.673.402-1.555 3.872-3.859 5.721-7.914 6.819-7.339 1.469-13.077.474-19.361-3.664.588-1.171 1.001-2.354 1.465-3.578l.938-1.36c1.694-.051 2.398.95 4.346 1.709 1.961-.25 10.689-.081 12.519.346 3.285-2.008 1.106-5.113-1.921-6.142-9.039-3.071-20.647-4.483-14.962-17.142z" class="E"/><path d="M476.598 321.147c3.296 2.511 12.526 1.326 16.861 1.256l.03 23.308c-4.769.087-11.026.02-15.673.402 1.007-7.278-1.402-9.866-8.01-12.158.076-3.237.236-6.287-.148-9.506 1.396.589 3.448 1.683 4.863 2.38l2.078-5.682z" class="B"/><path d="M469.805 333.956c-3.697-1.047-10.767-1.616-11.767-6.369 1.316-4.403 8.048-3.95 11.619-3.138.384 3.219.224 6.269.148 9.506z" class="C"/><g class="B"><path d="M457.29 346.039c1.961-.25 10.689-.081 12.519.346-4.353 2.447-8.134 1.509-12.519-.346zm-10.555-.067l5.27-.282-1.465 3.578c6.284 4.138 12.022 5.134 19.361 3.664.102 3.059.679 13.729-.167 16.021l-1.081.401c-6.513-.787-15.394.416-21.914-.307l-.004-23.076z"/></g><path d="M423.168 125.863c7.683-.206 15.832-.123 23.533-.067-.009 3.261-.194 9.497.263 12.481-1.926 3.575-3.836 7.112-5 11.026-6.185-.183-12.523-.052-18.792-.212l-.077 23.59c-3.965.104-8.683-.074-12.705-.121l.008-23.324c4.086.144 8.53-.003 12.647-.063l.123-23.312z" class="C"/><path d="M493.36 294.991c5.853 1.08 12.902 1.285 18.933 1.545 2.405 1.629 3.858-1.178 4.842 2.263-.391 3.036-.81 17.815.461 20.025-2.651 1.3-3.906 1.922-6.065 3.935-1.677-.623-15.488-.369-18.073-.356l-.01-23.088-.211-.292.123-4.032z" class="B"/><path d="M493.36 294.991c5.853 1.08 12.902 1.285 18.933 1.545 2.405 1.629 3.858-1.178 4.842 2.263l-23.687.516-.211-.292.123-4.032z" class="D"/><path d="M422.997 78.968l23.754.031.019 23.369-23.74.021-.033-23.421z" class="C"/><path d="M399.668 79.001l23.329-.033.033 23.421c-6.406.514-16.694.085-23.42.026.204-7.529.043-15.824.058-23.414z" class="B"/><g class="C"><path d="M446.758 299.044l-.048 23.316-23.606-.026.025-23.247c6.853.4 16.672.054 23.63-.042zm46.479-.021l.211.292.01 23.088c-4.335.07-13.564 1.255-16.861-1.256-2.532-1.39-3.79-1.762-6.481-2.616l-.19-19.508h23.31zm-23.176-196.674a371.76 371.76 0 0 0 .082 15.388c-5.4 2.732-7.952 4.494-12.677 8.302-3.702.039-7.063-.082-10.765-.243-.247-7.37 0-15.839.051-23.289 7.838.222 15.478.017 23.308-.158zm-70.451.067c6.725.059 17.014.488 23.42-.026.231 7.781.23 15.566-.003 23.346l-12.887.153c-.032-9.092-1.838-15.407-10.508-19.375l-.02-4.098zm10.367 176.49c.535-1.013.51-1.94.584-3.057 1.266-.376 10.317-.06 12.577-.156.24 7.131.121 16.137-.073 23.352-5.577.033-17.739.423-22.794-.124-.935-.956-.634-2.673-.526-3.995 7.559-3.216 9.841-8.22 10.232-16.019zm-33.729 43.493c4.921.043 10.727-.048 15.573.279l-.018 23.057-15.58-.056.025-23.28z"/><path d="M446.921 276.888c6.677 4.337 15.227 9.298 22.839 11.779l.034 10.31-23.036.068c-.02-6.309-.34-16.191.163-22.157z"/></g><g class="B"><path d="M563.619 55.596l23.623-.057.056 23.438 23.055.054.04 23.647-.044 23.159-23.095-.059c-2.347 0-12.455-.399-13.898.916l-9.946-6.153c.393-2.706.226-14.777.228-18.104-7.36.323-16.039.15-23.44.02-6.795-.286-16.537-.137-23.327-.008l.08-23.461-.063-23.457 23.357.056 23.375.009z"/><path d="M563.831 79.005l23.468-.028 23.055.054.04 23.647-.044 23.159-23.095-.059c-2.347 0-12.455-.399-13.898.916l-9.946-6.153c.393-2.706.226-14.777.228-18.104l.193-23.431z"/></g><g class="C"><path d="M563.831 79.005l23.468-.028-.061 23.465-23.6-.006.193-23.431zm23.447 23.724c7.782-.127 15.33-.329 23.115-.051l-.044 23.159-23.095-.059.024-23.049z"/></g><path d="M516.888 55.531l23.357.056c.139 6.965.483 16.518.014 23.394l-23.308.007-.063-23.457z" class="B"/><g class="C"><path d="M516.951 78.988l23.308-.007-.061 23.476c-6.795-.286-16.537-.137-23.327-.008l.08-23.461z"/><path d="M540.245 55.587l23.375.009c.02 6.359.485 17.426.111 23.393-7.74.006-15.753.12-23.471-.008.469-6.876.125-16.429-.014-23.394zM423.092 172.766l16.588.044c2.79 19.572 12.491 29.436 30.07 37.686l.093 9.045c7.619.026 16.191.294 23.665-.612-.342 10.716.29 21.877-.124 32.219-8.274-1.966-15.861-5.495-23.246-9.606-5.295-3.008-9.247-6.003-14.082-9.708-3.154 4.266-5.959 9.074-8.973 13.123l-13.713 20.455c3.57 3.564 6.779 6.473 10.803 9.551-2.402 1.154-17.186.674-20.945.647l-.188-56.093-12.662.021v-23.38l12.79.059-.076-23.452z"/></g><g class="B"><path d="M423.218 196.448c2.034-.555 20.345-.269 23.619-.311l-.081 23.416-23.624-.015.086-23.09z"/><path d="M446.757 219.553l23.062.01c.207 5.18-.213 18.373.319 21.978-5.295-3.008-9.247-6.003-14.082-9.708-3.154 4.266-5.959 9.074-8.973 13.123-.682-3.856-.383-20.645-.326-25.403zm140.497-93.775l23.095.059.022 23.411-.013 23.476.01 23.471-23.111-.032c-7.227.036-14.454-.003-21.681-.116l-1.997-1.223.079-22.068c-.182-2.732.569-8.241-.716-10.233.601-1.694 6.608-11.486 7.904-13.624 3.142-5.631 6.391-11.202 9.746-16.71-2.382-1.727-4.88-3.703-7.237-5.495 1.443-1.315 11.551-.916 13.898-.916z"/></g><g class="C"><path d="M563.659 172.756c6.326.222 17.256.305 23.623-.003l-.024 23.41c-7.227.036-14.454-.003-21.681-.116l-1.997-1.223.079-22.068zm23.534-23.427c7.192-.318 15.9-.093 23.178-.082l-.013 23.476c-7.448.028-15.681.211-23.053-.156l-.112-23.239z"/><path d="M587.254 125.778l.024 23.379c-4.555.002-12.06.2-16.431-.258 3.142-5.631 6.391-11.202 9.746-16.71-2.382-1.727-4.88-3.703-7.237-5.495 1.443-1.315 11.551-.916 13.898-.916z"/></g><path d="M572.133 275.115c2.085 1.04 12.222.46 15.165.493l.003 23.381-.078 23.39-9.478.017-2.477-4.019c-1.925-.058-4.121.032-6.067.066-.123 1.357-.147 2.018-.574 3.35-1.35.925-3.171.576-5.058.555l-23.26.094c-2.195.008-3.893.273-5.551-.935-3.43-3.874-12.492-3.683-17.161-2.683-1.271-2.211-.852-16.99-.461-20.025-.984-3.441-2.437-.634-4.842-2.263 11.809-.24 17.036-.589 28.298-3.298 7.666-1.468 16.388-6.143 22.846-10.35 3.232-2.675 5.687-4.853 8.695-7.773z" class="B"/><g class="C"><path d="M587.301 298.99l-.078 23.39-9.478.017-2.477-4.019c-1.925-.058-4.121.032-6.067.066-.123 1.357-.147 2.018-.574 3.35-1.35.925-3.171.576-5.058.555.405-7.292.273-15.72.317-23.103 7.646.074 15.745-.144 23.415-.256zm-70.165-.191c6.991.467 16.073.256 23.187.241l-.014 23.403c-2.195.008-3.893.273-5.551-.935-3.43-3.874-12.492-3.683-17.161-2.683-1.271-2.211-.852-16.99-.461-20.025zm23.456-5.561c7.666-1.468 16.388-6.143 22.846-10.35.519 4.598.091 11.286.241 16.187-7.447.003-15.858-.188-23.225.065l.138-5.902z"/></g><path d="M493.42 55.537l23.468-.006.063 23.457-.08 23.461-.064 6.365a145.6 145.6 0 0 0-23.352 1.421c-9.268 1.812-14.848 3.464-23.312 7.502a371.76 371.76 0 0 1-.082-15.388l-.013-23.397 23.381.031-.009-23.447z" class="B"/><g class="C"><path d="M493.42 55.537l23.468-.006.063 23.457-23.521-.004-.009-23.447z"/><path d="M470.048 78.952l23.381.031-.162 23.454c-7.695-.018-15.523.038-23.206-.088l-.013-23.397zm46.823 23.497l-.064 6.365a145.6 145.6 0 0 0-23.352 1.421l-.131-7.75c7.243.262 16.288.193 23.547-.036z"/></g><path d="M516.573 147.723c7.071.344 18.086 3.241 24.397 6.581 7.385 3.418 12.942 7.186 19.657 11.791l2.316-3.572c1.285 1.992.534 7.502.716 10.233l-.079 22.068c-8.776-5.219-14.551-7.03-24.142-10.22a343.18 343.18 0 0 0-22.34-5.529c-5.018-.771-14.582-3.707-19.077-5.963 2.662-.466 15.289-.392 18.903-.495l-.054-23.521-.299-1.373z" class="B"/><g class="C"><path d="M540.97 154.304c7.385 3.418 12.942 7.186 19.657 11.791l2.316-3.572c1.285 1.992.534 7.502.716 10.233-6.917-.374-15.966.042-23.322-.122.133-3.153-.649-16.722.633-18.329zm-23.958 18.566l23.223-.032c.014 3.005.181 8.437-.216 11.208l-.581.559a343.18 343.18 0 0 0-22.34-5.529c-.059-2.055-.152-4.155-.087-6.206z"/></g><path d="M469.75 210.496c18.957 7.402 29.727 8.152 47.857 13.427l-.627.745c-.2 8.945-.281 18.033-.009 26.973.013.421.324 1.157.363 1.26l1.253.479c-7.25 1.221-18.036-.756-25.202-2.232.414-10.342-.218-21.503.124-32.219-7.474.906-16.046.639-23.665.612l-.093-9.045z" class="B"/><path d="M506.015 148.03c3.265-.391 7.212-.3 10.558-.307l.299 1.373.054 23.521c-3.614.104-16.242.029-18.903.495-1.202-.407-3.432-1.745-4.638-2.422.211-4.95.245-12.65-.178-17.506 4.079-3.273 7.884-4.123 12.81-5.155z" class="C"/><path d="M506.015 148.03c3.265-.391 7.212-.3 10.558-.307l.299 1.373c-3.262.058-8.031.396-10.857-1.067z" class="F"/><g class="C"><path d="M517.607 223.923c6.083 1.623 14.037 4.142 17.391 9.865a11.42 11.42 0 0 1 1.105 8.847c-2.082 7.301-10.865 9.897-17.516 10.745l-1.253-.479c-.039-.103-.35-.838-.363-1.26-.272-8.94-.19-18.029.009-26.973l.627-.745zm46.031-121.486c-.002 3.327.166 15.398-.228 18.104-7.895-3.712-14.635-6.47-23.152-8.538l-.06-9.547c7.401.131 16.08.303 23.44-.02z"/></g><path d="M565.577 196.047l21.681.116c.029 3.245.615 21.856-.551 23.271-1.524.213-1.989.231-3.536.206-2.755-10.4-9.591-17.074-17.594-23.594z" class="B"/><path d="M585.751 235.819c.648.96 1.627 14.614 1.576 16.533.035 5.284.409 17.065-.063 22.03l.034 1.227c-2.943-.033-13.079.546-15.165-.493 6.225-7.213 9.674-14.046 12.045-23.152 1.532-7.159 1.451-8.678 1.573-16.145z" class="C"/><path d="M585.751 235.819c.648.96 1.627 14.614 1.576 16.533.035 5.284.409 17.065-.063 22.03-.528-7.056.04-14.41-.494-21.472-.71-.786-1.368-.69-2.591-.946 1.532-7.159 1.451-8.678 1.573-16.145z" class="F"/><g class="B"><path d="M516.871 102.449c6.79-.129 16.532-.279 23.327.008l.06 9.547c-8.874-2.006-14.275-2.466-23.451-3.189l.064-6.365zm-70.17 23.347c3.702.161 7.062.282 10.765.243-4.734 4.333-6.682 6.996-10.502 12.239-.457-2.985-.273-9.221-.263-12.481z"/></g><path d="M493.383 170.691l-.588-.521c-5.581-5.123-4.518-11.878.409-16.986.423 4.857.389 12.556.178 17.506z" class="F"/><path d="M301.466 322.431l3.933-.298c.836-1.438.099-19.056.526-22.518l.048-.366c.536 6.2.191 16.454.216 23.074 4.972.046 18.691.511 22.978.05.559 4.219.309 18.356.335 23.304l.02 23.787 23.363.024c5.316.025 14.682.231 19.664-.372l3.673.189.016 23.113c7.124.006 16.123-.24 23.146.074l.223.163c.005 6.403-.289 16.669.154 22.845l.263.298-.352.389-.006 23.067-.049 22.801h-23.385-46.65-.465-22.954-.392-22.928-.46-23.228-23.464-23.346-23.386-23.527-23.534-23.394-23.388l.011-22.85-.008-23.346 23.389-.02.008-23.425-23.419.013.032-23.009c7.051-.395 16.266-.352 23.386-.253l-.019-23.434.047-23.383 23.371.016 23.581-.005 23.398-.011 23.431.037c2.994.024 7.147-.062 10.044.142l1.866-4.061c2.18-.051 4.621-.165 6.78-.116l12.414 27.721c5.193.01 10.58.116 15.745-.276l-.063-23.41c2.429.001 15.015-.386 16.425.434 2.771-2.681 4.353-3.374 8.026-4.556 5.297-.369 10.584-.165 15.195 2.985 1.078 1.001 1.243 1.05 2.711 1.185z" class="D"/><path d="M141.913 322.363l23.581-.005 23.398-.011 23.431.037c-.017 3.339-.55 18.895 1.026 21.127l-1.225 2.538c-.882 1.889-2.617 4.838-2.444 6.675.978.848 1.099.577 2.644.617.008 4.938.189 11.13.005 15.968l.031 23.128-23.462-.023-23.476-.012-23.499.043-23.409-.032-23.419.013.032-23.009c7.051-.395 16.266-.352 23.386-.253l-.019-23.434.047-23.383 23.371.016z" class="B"/><g class="C"><path d="M141.913 322.363l-.02 23.383c-7.249.223-16.164.312-23.398-.016l.047-23.383 23.371.016zm23.52 23.429c-.228 7.673-.102 15.716-.085 23.42-7.375-.332-15.546.251-23.206-.028-.534-1.61-.225-20.251-.243-23.282 7.323.306 16.167.082 23.533-.11zm-.051 23.581c7.836-.146 15.674-.178 23.512-.094l.005 23.136-23.476-.012c.106-7.676.093-15.353-.041-23.03z"/><path d="M165.494 322.358l23.398-.011-.161 23.433c-6.544.012-16.96.387-23.297.012.214-7.57.017-15.771.06-23.434zm-46.986 46.991c7.254-.066 16.147-.342 23.33-.042l.085 23.139-23.409-.032-.006-23.065zm70.32-23.363c7.767.14 15.352-.178 23.296.063-.882 1.889-2.617 4.838-2.444 6.675.978.848 1.099.577 2.644.617.008 4.938.189 11.13.005 15.968-7.004-.373-16.201-.105-23.38-.072l-.121-23.251z"/></g><g class="B"><path d="M165.422 392.402l23.476.012.076 23.437-23.51.114.009 23.234a407.65 407.65 0 0 0-.045 22.856h-23.534-23.394-23.388l.011-22.85-.008-23.346 23.389-.02.008-23.425 23.409.032 23.499-.043z"/><path d="M118.514 392.413l23.409.032v23.387a350.59 350.59 0 0 1-23.417.005l.008-23.425z"/></g><g class="C"><path d="M141.923 392.446l23.499-.043a641.33 641.33 0 0 0-.034 23.431l-23.465-.001v-23.387z"/><path d="M141.923 415.833l-.056 23.378c-7.79.101-15.582.094-23.371-.021l.01-23.352a350.59 350.59 0 0 0 23.417-.005zm23.552 23.366a407.65 407.65 0 0 0-.045 22.856h-23.534l-.008-22.707c7.882-.046 15.712.247 23.588-.149z"/><path d="M95.125 439.204c6.765.546 16.372.055 23.409.127l-.032 22.723H95.114l.011-22.85z"/></g><path d="M259.034 392.393l-.048 23.408-23.291.024.01 23.372-.014 22.858h-23.346-23.386-23.527a407.65 407.65 0 0 1 .045-22.856l-.009-23.234 23.51-.114-.076-23.437 23.462.023 23.296-.04 23.378-.004z" class="B"/><path d="M235.695 415.824l.01 23.372-.014 22.858h-23.346-23.386l.014-22.731c7.398.202 15.906-.011 23.363-.138l-.014-23.158c7.792.064 15.584-.004 23.374-.204z" class="C"/><path d="M235.705 439.196l-.014 22.858h-23.346l.014-22.816c7.675.185 15.647.022 23.347-.042z" class="B"/><g class="C"><path d="M188.899 392.414l23.462.023-.023 23.438-23.363-.024-.076-23.437zm70.135-.021l-.048 23.408-23.291.024-.038-23.427 23.378-.004z"/><path d="M188.975 415.852l-.05 23.317-23.45.031-.009-23.234 23.51-.114z"/></g><path d="M224.232 318.465l6.78-.116 12.414 27.721c5.193.01 10.58.116 15.745-.276l15.17-.031-1.488 3.613c5.222 3.119 7.377 3.561 13.476 4.35-1.077.008-2.284-.03-3.335.135-.757 2.621-.543 11.859-.522 15.175-6.77.483-16.75-.639-23.135.379-.226 1.275-.28 1.6-.206 2.888-.29 6.431-.13 13.594-.097 20.092l-23.378.004-23.296.04-.031-23.128c.183-4.838.003-11.03-.005-15.968-1.545-.04-1.666.231-2.644-.617-.173-1.837 1.562-4.786 2.444-6.675l1.225-2.538c-1.576-2.232-1.043-17.788-1.026-21.127 2.994.024 7.147-.062 10.044.142l1.866-4.061z" class="B"/><path d="M224.232 318.465l6.78-.116 12.414 27.721 3.237 7.201-7.121.023-3.11-6.391c-.258-.601-.351-1.191-.865-1.274-4.148-.672-12.328-.378-16.365-.214-1.627 4.508-1.542 8.024-6.878 7.927-1.545-.04-1.666.231-2.644-.617-.173-1.837 1.562-4.786 2.444-6.675l1.225-2.538c-1.576-2.232-1.043-17.788-1.026-21.127 2.994.024 7.147-.062 10.044.142l1.866-4.061z" class="E"/><g class="C"><path d="M212.323 322.384c2.994.024 7.147-.062 10.044.142l-9.018 20.985c-1.576-2.232-1.043-17.788-1.026-21.127zm15.077 3.626c1.525 1.385 5.241 11.404 6.258 13.995l-4.275-.016-7.731-.015 5.748-13.964zm-15.071 43.299l23.407-.014-.08 23.103-23.296.04-.031-23.128z"/><path d="M259.171 345.794l-.031 23.392c-7.362-.019-16.259.296-23.441.088-.024-3.722-.552-20.075.733-22.372l3.11 6.391 7.121-.023-3.237-7.201c5.193.01 10.58.116 15.745-.276zm-23.476 70.03l23.291-.024.099 2.639c.12-.505.351-1.964.665-1.997 6.109-.649 16.85-.144 22.704-.258l-.069 22.957a637.96 637.96 0 0 1-.003 22.913h-23.228-23.464l.014-22.858-.01-23.372z"/></g><g class="B"><path d="M235.695 415.824l23.291-.024.099 2.639a677.94 677.94 0 0 1 .026 20.822c-7.158.014-16.417.3-23.407-.065l-.01-23.372zm46.691 23.317a637.96 637.96 0 0 1-.003 22.913h-23.228l-.016-22.884c7.55.189 15.657.011 23.248-.029z"/></g><path d="M372.55 369.115l3.673.189.016 23.113-.026 23.383c-7.586-.212-15.669-.062-23.292-.04l-.127-23.296c-7.758.055-15.516.037-23.273-.058l-23.287-.004-.055-22.947 23.346.008 23.363.024c5.316.025 14.682.231 19.664-.372z" class="C"/><path d="M372.55 369.115l3.673.189.016 23.113c-7.738.117-15.692.003-23.447-.02.242-7.367.088-15.487.093-22.91 5.316.025 14.682.231 19.664-.372z" class="B"/><path d="M376.295 416.227l23.377-.041-.006 23.067-.049 22.801h-23.385-46.65c-.243-6.979-.01-15.386-.005-22.48l26.658-.131c6.471-.012 13.718.193 20.075-.201l-.015-23.015z" class="C"/><path d="M399.666 439.253l-.049 22.801h-23.385l.024-22.788 23.41-.013z" class="B"/><path d="M283.56 318.261c5.297-.369 10.584-.165 15.195 2.985 1.078 1.001 1.243 1.05 2.711 1.185 1.458.132 2.546.253 4.001.5.623 2.802.397 19.068.343 22.704-1.024.035-4.933.097-5.695.319-3.392 6.521-6.74 7.061-13.787 7.77-6.099-.789-8.254-1.231-13.476-4.35l1.488-3.613c-5 .148-10.156.057-15.17.031l-.063-23.41c2.429.001 15.015-.386 16.425.434 2.771-2.681 4.353-3.374 8.026-4.556z" class="E"/><path d="M259.108 322.383c2.429.001 15.015-.386 16.425.434-5.528 10.252 2.127 14.02 10.818 16.09 2.725.649 8.776 2.374 6.727 6.239-3.293 6.307-12.869 1.003-17.454-.984-.349-.149-1.15 1.334-1.283 1.6-5 .148-10.156.057-15.17.031l-.063-23.41z" class="C"/><g class="B"><path d="M298.755 321.246c1.078 1.001 1.243 1.05 2.711 1.185l4.001.5c.623 2.802.397 19.068.343 22.704-1.024.035-4.933.097-5.695.319.939-12.485-7.821-10.885-16.711-14.443-3.889-1.556-3.646-6.014.465-7.203 4.671-1.351 8.662.184 12.772 2.292.708-1.542 1.481-3.727 2.113-5.354zm7.478 24.466c7.901.207 15.36.105 23.27-.036l.02 23.787-23.346-.008.055-23.743zm70.006 46.705c7.124.006 16.123-.24 23.146.074l.223.163c.005 6.403-.289 16.669.154 22.845-2.036.568-20.306.354-23.549.301l.026-23.383zm-70.006-.015l23.287.004-.008 23.362-23.347.015.069-23.381z"/></g><path d="M306.189 322.322c4.972.046 18.691.511 22.978.05.559 4.219.309 18.356.335 23.304-7.91.141-15.369.243-23.27.036.085-7.643-.327-15.832-.043-23.39z" class="C"/><g class="B"><path d="M329.511 415.768c7.008.334 16.405.375 23.424.045l-.039 23.27-23.509.086.124-23.401zm-47.075-23.377c.386 2.558.054 19.595.034 23.352h-23.063c-.196-7.611-.068-15.729.015-23.356l23.014.003z"/></g><path d="M259.337 369.413c7.69.247 15.454.039 23.153.13-.059 5.624-.488 17.78-.054 22.848-7.671.066-15.342.065-23.014-.003.059-5.244.262-15.137-.291-20.087-.075-1.288-.02-1.613.206-2.888z" class="C"/><path d="M329.084 439.17c.166 7.534.054 15.328.033 22.884h-22.954l.022-20.485c.012-1.317-.07-1.615.704-2.315l22.195-.084z" class="B"/><g class="C"><path d="M306.143 416.195l23-.021-.059 22.997c-7.315.153-14.861.074-22.195.084-1.074-1.582-.684-19.572-.747-23.059zm-23.276 23.329l22.889-.029.014 22.559h-22.928l.025-22.53zm22.943-93.888l.005 23.389-23.344.01c-.021-3.316-.235-12.554.522-15.175 1.052-.165 2.258-.127 3.335-.135 7.047-.709 10.395-1.249 13.787-7.77.762-.223 4.671-.285 5.695-.319zm-22.99 46.826l23.031-.082-.125 23.408-3.341.033c-5.665-.396-13.671-.118-19.501-.082l-.064-23.279z"/></g><g class="B"><path d="M305.726 415.789c.219 7.562.102 15.707.081 23.306l-23.007.002.073-22.927c5.484.022 14.268.154 19.512-.347l3.341-.033zm-22.846-46.342c7.054-.03 15.899-.303 22.876-.014.006 7.236-.194 15.787.094 22.947l-23.031.082.06-23.015zM-22.083 102.382c6.986-.003 16.569-.3 23.343.076l.014 23.33c7.194.224 17.049-.347 23.595.055l4.461.179-.015 23.061-.007 25.855c-.016 3.35.131 8.514-.074 11.707.38 20.178-.188 40.451.05 60.639.016 1.352-.01 3.187.173 4.49 5.23-6.027 12.796-13.844 18.385-19.559 2.976-3.766 8.628-9.453 12.03-12.831 3.496-4.127 7.554-8.242 11.299-12.181l.708-.866c1.967.368 13.11 10.975 15.114 12.897 2.859 2.433 5.412 4.643 8.125 7.232l.002 25.794.007 23.369a537.92 537.92 0 0 0 23.388.012l-.024 23.433c7.524.039 15.995.331 23.411.125l.012 23.165a928 928 0 0 1-23.371-.016l-.047 23.383.019 23.434c-7.12-.099-16.336-.142-23.386.253l-.032 23.009 23.419-.013-.008 23.425-23.389.02.008 23.346-.011 22.85H71.66 48.281 24.947 1.27-22.083v-22.837-23.25-23.531-23.18-23.303a768.09 768.09 0 0 0 23.368-.189l-.013-23.338c-5.971.401-16.996.001-23.355-.019V299.2v-23.368-23.56-32.729-23.325-23.415-23.555-23.459-23.406z"/></g><path d="M-22.083 102.382c6.986-.003 16.569-.3 23.343.076l.014 23.33c7.194.224 17.049-.347 23.595.055l4.461.179-.015 23.061-.007 25.855c-.016 3.35.131 8.514-.074 11.707-.115 1.942-.142 8.094-.647 9.409-2.259.711-2.061-.504-3.554.685-.118 3.396-.51 19.561-.03 22.028 1.8 1.76 4.622-1.605 3.885 5.849-.705 7.133 1.123 20.563-.266 27.041-2.109 2.113-3.834-2.057-3.832 5.154l.095 18.852-.135 23.353-23.467.155-.012 23.257c-5.971.401-16.996.001-23.355-.019V299.2v-23.368-23.56-32.729-23.325-23.415-23.555-23.459-23.406z" class="C"/><path d="M-22.083 102.382c6.986-.003 16.569-.3 23.343.076l.014 23.33c7.194.224 17.049-.347 23.595.055l4.461.179-.015 23.061-.007 25.855-.407-1.474c-1.169-.894-1.753-.601-3.465-.903-.994-2.259-.467-18.902-.685-23.307-7.769-.075-15.683.014-23.465.022l.007 23.247c-5.723.658-17.322.321-23.377.281v-23.555-23.459-23.406z" class="B"/><path d="M-22.083 102.382c6.986-.003 16.569-.3 23.343.076l.014 23.33.01 23.393-23.367.067v-23.459-23.406z" class="C"/><path d="M-22.083 102.382c6.986-.003 16.569-.3 23.343.076l.014 23.33-23.358.001v-23.406z" class="B"/><path d="M24.869 125.842l4.461.179-.015 23.061c-1.528.054-3.173.205-4.41-.568-.507-3.577-.07-18.366-.037-22.672z" class="C"/><g class="B"><path d="M-22.083 252.272l23.37.001-.009 23.4a364.65 364.65 0 0 0 23.608-.012l-.135 23.353-23.467.155-.012 23.257c-5.971.401-16.996.001-23.355-.019V299.2v-23.368-23.56z"/><path d="M-22.083 252.272l23.37.001-.009 23.4c-7.699-.047-15.647.106-23.361.159v-23.56z"/></g><path d="M1.277 275.673l-.022 23.381c-7.195.258-16.081.338-23.339.145v-23.368l23.361-.159z" class="C"/><path d="M1.269 219.534l23.423-.042c.253 11.296.017 21.532-.015 32.742a685.99 685.99 0 0 1-23.39.04l-23.37-.001v-32.729l23.353-.009z" class="B"/><g class="C"><path d="M-22.083 219.543l23.353-.009.018 32.74-23.37-.001v-32.729z"/><path d="M1.293 172.521l-.017 23.668-.007 23.344-23.353.009v-23.325-23.415c6.054.04 17.654.377 23.377-.281z"/></g><g class="B"><path d="M-22.083 196.218l23.36-.028-.007 23.344-23.353.009v-23.325z"/><path d="M1.293 172.521c7.467.391 15.908.184 23.461.144.187 7.555-.199 16.277.106 23.509l-23.585.016.017-23.668z"/></g><path d="M71.633 252.238l23.486.02.007 23.369-.005 23.418-23.431.042a574.08 574.08 0 0 0-.108 23.263l-23.253.062.022-23.215c7.614.16 15.568-.012 23.21-.076l.053-23.414c-.208-7.822-.202-15.647.02-23.469z" class="C"/><path d="M71.633 252.238l23.486.02.007 23.369-23.513.079c-.208-7.822-.202-15.647.02-23.469z" class="B"/><path d="M1.272 415.791l23.5.054a383.81 383.81 0 0 0 23.358-.002l-.013 23.297a572.96 572.96 0 0 1-23.209.049c.013 7.481-.207 15.463.04 22.864H1.27l.008-22.872-.006-23.392z" class="C"/><path d="M1.272 415.791l23.5.054c.159 7.812.163 15.627.012 23.438-7.63.013-15.932.178-23.505-.101l-.006-23.392z" class="B"/><path d="M1.275 392.412l-.003 23.38.006 23.392-.008 22.872h-23.353v-22.837-23.25-23.531l23.359-.025z" class="C"/><g class="B"><path d="M1.275 392.412l-.003 23.38c-7.316.356-16.006.303-23.355.177v-23.531l23.359-.025zm-23.358 46.806c7.787.128 15.575.116 23.361-.035l-.008 22.872h-23.353v-22.837h0z"/></g><path d="M24.886 275.661l23.375.043-.079 23.346-23.302.07c.013 7.308.238 16.048-.095 23.262-6.691.003-17.145-.344-23.514.044l.012-23.257 23.467-.155c.264-7.652.146-15.668.135-23.353z" class="C"/><path d="M1.284 345.765l-.002 23.523-.006 23.124-23.359.025v-23.18-23.303c7.79.056 15.58-.008 23.368-.189z" class="B"/><g class="C"><path d="M-22.083 369.257c6.714.113 17.127-.355 23.365.031l-.006 23.124-23.359.025v-23.18zM95.126 322.37l-.012 23.365a598.8 598.8 0 0 1-23.566-.047l-.075 23.547c-7.386-.265-15.683-.092-23.137-.093l-.008-23.222c5.381.278 18.086.128 23.239-.262.223-7.601.096-15.678.024-23.289 7.414.06 16.235.343 23.534 0z"/><path d="M95.099 345.902c5.434.333 18.165.166 23.396-.172l.019 23.434c-7.12-.099-16.336-.142-23.386.253l-.032 23.009-23.445-.037a690.97 690.97 0 0 0-.137-22.99l23.578-.185.008-23.313zm-8.107-126.67c2.859 2.433 5.412 4.643 8.125 7.232l.002 25.794c-7.798.076-15.681-.001-23.486-.02l.056-32.712c4.34.03 11.185.228 15.303-.295zM1.275 392.412l23.446-.003a432.33 432.33 0 0 1 .05 23.437 1474.33 1474.33 0 0 1-23.5-.054l.003-23.38zm.009-46.647a357.78 357.78 0 0 0 23.462.085c.242 6.997.392 16.543.05 23.48-7.598-.311-15.896-.123-23.514-.042l.002-23.523z"/><path d="M95.095 392.426l23.419-.013-.008 23.425-23.389.02-.022-23.431zm-46.808.026c7.623.125 15.704-.038 23.363-.062l-.21 23.431-23.111.008-.042-23.376z"/><path d="M95.117 415.858l.008 23.346-23.44.017-.098-23.318c7.621.057 15.976.27 23.53-.046zM48.365 252.266a539.31 539.31 0 0 0 23.268-.027c-.223 7.822-.228 15.647-.02 23.469-7.658-.172-15.43.098-23.345-.108l.098-23.334zm46.751 46.981l23.413.02.013 23.08-23.415.023-.01-23.123zm-70.32 70.082l23.449-.003c-.187 6.859-.405 16.278.023 23.056a1439.34 1439.34 0 0 1-23.455-.005l-.017-23.048zm23.314 70.093l23.443-.149.106 22.782H48.281c.075-7.545.018-15.09-.171-22.632zm-.268-207.209c.709 1.875.271 16.864.36 20.033-3.27.064-16.432.617-18.745-.474 5.23-6.027 12.796-13.844 18.385-19.559zm12.029-12.831c3.496-4.127 7.554-8.242 11.299-12.181.483 2.985.383 9.006.416 12.254-3.933.034-7.778.082-11.715-.073zm-35.103 103.12l23.438-.121c-.162 3.67.816 21.459-.611 23.369-6.788.348-15.958.272-22.749.007l-.078-23.254z"/></g><g class="B"><path d="M-22.083-38.221H1.271h23.451 23.443 23.483 23.42 23.499 23.349 23.531 23.354 23.523 23.425 23.374 23.344 23.392a710.92 710.92 0 0 1-.054 23.35l.024 23.706c-6.247-.491-16.33.078-23.318-.224l.028 23.536-23.378.068c-.054 2.78-.014 6.426-.195 9.132-3.921-.882-9.544-1.212-13.677-1.561-19.623.322-39.937.075-59.608.055l-122.731.002c1.558 1.546 8.377 8.148 9.343 9.429 1.946 1.879 4.085 3.864 5.93 5.817 5.564 4.986 12.313 11.652 17.454 17.099-.788 1.652-.567 4.862-.57 6.82l-.037 23.015c-2.236.501-20.592.284-23.403.056l-.485.268c.133 2.546.582 13.437-.475 15.175l-.867.543c-4.525.113-9.052.134-13.578.065-7.795.611-18.84.363-26.908.404l-.025 7.488-4.461-.179c-6.546-.403-16.401.169-23.595-.055l-.014-23.33c-6.774-.375-16.357-.078-23.343-.076V78.981 55.607 8.806v-.397-23.244-23.387z"/><path d="M235.751-38.221h23.374 23.344 23.392a710.92 710.92 0 0 1-.054 23.35l.024 23.706c-6.247-.491-16.33.078-23.318-.224l.028 23.536-23.378.068c-.054 2.78-.014 6.426-.195 9.132-3.921-.882-9.544-1.212-13.677-1.561-2.812-.62-6.658-.425-9.614-.41l.145-7.153c-.392-6.91-.097-16.396-.058-23.503 6.869-.387 16.021-.018 23.408-.226.124-7.644-.077-15.631-.003-23.38l-23.358.011-.059-23.344z"/></g><g class="C"><path d="M305.805-14.871l.024 23.706c-6.247-.491-16.33.078-23.318-.224l.276-23.467 23.019-.016z"/><path d="M282.511 8.611l.028 23.536-23.378.068-.003-23.525c7.784.12 15.57.093 23.352-.079z"/><path d="M235.82 32.222l23.341-.007-.195 9.132c-3.921-.882-9.544-1.212-13.677-1.561-2.812-.62-6.658-.425-9.614-.41l.145-7.153zM-22.083-38.221H1.271h23.451 23.443l-.003 23.328-23.273.018c-.282 7.851.134 15.938-.188 23.459L1.266 8.515l-23.349-.106v-23.244-23.387z"/><path d="M-22.083-38.221H1.271l.008 23.339-.012 23.397-23.349-.106v-23.244-23.387z"/></g><path d="M-22.083-14.835l23.362-.048-.012 23.397-23.349-.106v-23.244z" class="B"/><g class="C"><path d="M71.51-14.885l-.133 23.683c7.88-.137 15.925.16 23.719-.199l.026 23.587c-4.543-.241-11.456-.009-16.133.035-10.455.099-20.29.055-30.735-.336.251-15.384.041-31.331.038-46.747l23.217-.023zM1.277 55.48a732.62 732.62 0 0 0 23.664.082l-.128 23.419 23.359-.001-.132 23.397c-7.657-.006-15.435.059-23.08-.051l-.199-23.377-23.477.045-23.367-.013V55.607l23.36-.127z"/></g><g class="B"><path d="M-22.083 55.607l23.36-.127.007 23.514-23.367-.013V55.607zm93.731-93.828h23.42l.033 23.405-.005 23.415c-7.795.359-15.84.062-23.719.199l.133-23.683a587.52 587.52 0 0 0 .138-23.336z"/></g><g class="C"><path d="M95.069-38.221h23.499l-.044 23.358-.037 23.523c-7.034.059-16.453.346-23.391-.061l.005-23.415-.033-23.405zM235.81-14.877l23.358-.011.003 23.38c-7.388.208-16.54-.161-23.408.226-.039 7.108-.334 16.593.058 23.503-7.596-.155-15.83.023-23.478.038l-.011-23.575c7.388.26 15.932.08 23.4.043l.079-23.605zM-22.083 8.806l23.36.12a693.94 693.94 0 0 0-.059 22.919l.059 23.634c-7.566.234-15.748.106-23.36.127v-46.8z"/></g><path d="M1.266 8.515l23.435.069.102 23.595c-7.207-.694-15.726.274-23.585-.334a693.94 693.94 0 0 1 .059-22.919 1491.41 1491.41 0 0 1-23.36-.12v-.397l23.349.106z" class="D"/><g class="C"><path d="M188.867-14.829l23.496-.057.014 23.463a589.39 589.39 0 0 1-23.373.119l-.137-23.525zM141.953 8.565l-.025 23.614a1248.78 1248.78 0 0 1-23.387-.032c-.125-7.677.006-15.677.023-23.379a484.71 484.71 0 0 0 23.389-.203zm23.593.156c7.248.092 16.554-.294 23.44.133l.065 23.378-23.623.02.119-23.531zM1.26 102.457c7.376.172 16.292.388 23.645.01a517.48 517.48 0 0 0-.036 23.375c-6.546-.403-16.401.169-23.595-.055l-.014-23.33z"/><path d="M141.932-14.869l23.414-.007-.084 23.387c-6.61.3-16.737.428-23.31.055l-.02-23.434zm-164.015 93.85l23.367.013-.024 23.464c-6.774-.375-16.357-.078-23.343-.076V78.981zm93.777.025l23.414.001-.037 23.015c-2.236.501-20.592.284-23.403.056l.027-23.072zm-46.99-46.729l23.387-.017.128 23.218-23.279.083-.237-23.285zm23.358 70.234c7.089.282 15.901-.053 23.119-.164.133 2.546.582 13.437-.475 15.175l-.867.543c-4.525.113-9.052.134-13.578.065-1.989-.29-5.719-.197-7.849-.206-.021-5.022-.267-10.347-.351-15.412zm47.061-70.325c7.761.15 15.602.02 23.377.074l-.027 7.102-23.31-.008-.04-7.168zm93.928.047l23.291.027.011 7.114-23.398.003.096-7.144zM71.508 55.418c.06-1.804-.093-4.761.786-6.147l5.93 5.817c-2.487.597-4.19.424-6.716.33zm-23.257.148l23.173-.117.087 23.528H48.275l-.024-23.411zm93.909-23.294l23.147-.035-.034 7.129-23.113-.002v-7.092z"/></g><path d="M71.667 102.078c2.811.228 21.168.445 23.403-.056l.079.275c5.757.015 17.879-.224 23.39.417 3.228.031 21.859-.424 23.182.697l.316 1.937.249-2.986 23.182-.006.01 23.395 23.498.134c-.032 3.065-.596 20.623.515 22.222-6.18 5.929-17.577 16.644-24.106 21.909-.424.494-1.106 1.238-1.435 1.754.516.523 1.838 1.796 2.22 2.308 5.762 5.957 14.995 15.041 20.294 21.175 7.388 6.972 15.977 16.495 23.127 23.953l2.998 3.093 28.359 29.529c-1.764.086-3.462.174-5.229.172.014 4.153.248 19.55-.348 22.626l1.211 1.204c3.375 3.349 7.097 6.356 7.438 11.447.297 4.457-4.882 5.913-8.431 5.721l.035 6.183h23.607l-.122 23.202.063 23.41c-5.165.392-10.552.286-15.745.276-4.256-8.947-8.333-18.622-12.414-27.721-2.159-.048-4.599.065-6.78.116l-1.866 4.061c-2.896-.204-7.05-.118-10.044-.142l-23.431-.037-23.398.011-23.581.005-.012-23.165c-7.416.206-15.887-.086-23.411-.125l.024-23.433c-7.795.166-15.593.161-23.388-.012l-.007-23.369-.002-25.794c-2.713-2.589-5.266-4.8-8.125-7.232-2.005-1.921-13.147-12.529-15.114-12.897l-.708.866c-3.745 3.939-7.802 8.054-11.299 12.181-3.402 3.379-9.053 9.065-12.03 12.831-5.589 5.715-13.155 13.532-18.385 19.559-.183-1.303-.157-3.138-.173-4.49l-.05-60.639c.205-3.193.058-8.357.074-11.707l.007-25.855.015-23.061.025-7.488c8.068-.042 19.113.206 26.908-.404 4.526.07 9.053.048 13.578-.065l.867-.543c1.057-1.738.608-12.628.475-15.175l.485-.268z" class="E"/><path d="M193.947 251.972l18.43 18.922-.03 4.801h4.844c3.714 3.785 14.415 15.578 18.397 17.303l.035 6.183h23.607l-.122 23.202.063 23.41c-5.165.392-10.552.286-15.745.276-4.256-8.947-8.333-18.622-12.414-27.721-2.159-.048-4.599.065-6.78.116l-1.866 4.061c-2.896-.204-7.05-.118-10.044-.142l-23.431-.037-23.398.011-23.581.005-.012-23.165c-7.416.206-15.887-.086-23.411-.125l.024-23.433c7.621.144 15.825.429 23.38.077 2.771-.007 5.094.218 7.529-1.053.8.077 4.67.262 5.001.32 1.9 1.067 8.195.634 10.742.586l.361-20.123 11.594 11.895c3.557 3.715 6.532 7.466 12.075 6.064 5.678-4.446 4.452-8.573-.178-13.129l-.096-8.023c1.711-.008 3.32-.149 5.025-.282z" class="B"/><path d="M212.347 275.695h4.844c3.714 3.785 14.415 15.578 18.397 17.303l.035 6.183h23.607l-.122 23.202.063 23.41c-5.165.392-10.552.286-15.745.276-4.256-8.947-8.333-18.622-12.414-27.721-2.159-.048-4.599.065-6.78.116l-1.866 4.061c-2.896-.204-7.05-.118-10.044-.142l-23.431-.037c.251-7.263.069-15.634.086-22.985 6.952-.537 16.228-.323 23.361-.319l.008-23.347z" class="C"/><path d="M212.35 299.099c7.014-.001 16.603.409 23.344.138l-.108 23.292c7.839-.201 15.681-.25 23.522-.146l.063 23.41c-5.165.392-10.552.286-15.745.276-4.256-8.947-8.333-18.622-12.414-27.721-2.159-.048-4.599.065-6.78.116l-1.866 4.061c-2.896-.204-7.05-.118-10.044-.142l.027-23.285z" class="B"/><g class="C"><path d="M118.514 275.64c7.621.144 15.825.429 23.38.077l-.024 23.412 23.536-.115a470.06 470.06 0 0 0 .087 23.343l-23.581.005-.012-23.165c-7.416.206-15.887-.086-23.411-.125l.024-23.433z"/><path d="M193.947 251.972l18.43 18.922-.03 4.801-6.951.149-3.75-3.847-3.482 3.443-9.47.167c.168 5.491.411 9.889-.33 15.39 1.087 1.131 2.145 2.269 3.317 3.312l-8.579 8.537-4.311-4.163c-2.824.654-10.006.405-13.253.368-.003-2.451-.239-8.861.615-10.797.391.395 1.582 1.689 2.127 1.469 3.256-1.319 6.273-5.423 8.641-8.047l-5.391-5.389c3.416-1.434 12.419.227 16.416-1.001.716-.22.855-1.016 1.252-1.88 5.678-4.446 4.452-8.573-.178-13.129l-.096-8.023c1.711-.008 3.32-.149 5.025-.282z"/></g><g fill="#c82227"><path d="M183.121 285.665l5.243 5.333 3.317 3.312-8.579 8.537-4.311-4.163-4.207-4.311c2.98-2.788 5.732-5.747 8.537-8.709zm-14.692-12.451l3.099 3.074 5.391 5.389c-2.367 2.624-5.385 6.728-8.641 8.047-.544.221-1.736-1.074-2.127-1.469-1.021-1.369-4.869-4.95-6.301-6.336l8.579-8.705zm29.735 2.227l3.482-3.443 3.75 3.847 4.543 4.799c-2.706 2.846-5.666 5.734-8.444 8.534-2.813-2.626-5.763-5.686-8.511-8.424l5.18-5.312z"/></g><path d="M142.286 102.364l23.182-.006.01 23.395 23.498.134c-.032 3.065-.596 20.623.515 22.222-6.18 5.929-17.577 16.644-24.106 21.909-.424.494-1.106 1.238-1.435 1.754.516.523 1.838 1.796 2.22 2.308 5.762 5.957 14.995 15.041 20.294 21.175 7.388 6.972 15.977 16.495 23.127 23.953-5.347.648-14.962.379-20.657.339l.074 8.363c-5.913-5.126-18.727-17.795-24.354-23.577l-7.912-7.593c-4.465-3.782-10.84-10.307-15.171-14.532a259.61 259.61 0 0 1-9.135-8.828c-4.717-4.117-9.279-8.653-13.787-13.013 3-3.35 8.337-8.369 11.652-11.458 3.609-3.701 7.282-7.339 11.017-10.912 6.806-7.06 14.123-14.115 21.082-21.081-6.704.247-13.74.251-20.471.353-.048-3.786-.209-8.202.108-11.919l.249-2.986z" class="B"/><g class="C"><path d="M141.906 149.211l23.335.045c-.008 6.696-.156 14.137.143 20.763-.424.494-1.106 1.238-1.435 1.754l-.355.691c-1.73.577-18.41.324-21.559.297l-.129-23.55zm24.264 24.869c5.762 5.957 14.995 15.041 20.294 21.175l-.578.597c-1.994.759-17.483.4-20.482.376.094-3.871-.605-20.013.765-22.148zm-24.852-36.084c.87 1.798.583 8.68.579 11.102-3.363.008-8.386.157-11.596-.19a446.27 446.27 0 0 1 11.017-10.912zm-8.882 35.383c1.756-.824 7.236-.551 9.472-.562l-.337 9.391a259.61 259.61 0 0 1-9.135-8.828zm24.306 23.36c1.429-.912 6.619-.612 8.569-.59-.01 1.932.23 6.698-.657 8.184l-7.912-7.593z"/></g><path d="M95.149 102.298c5.757.015 17.879-.224 23.39.417 3.228.031 21.859-.424 23.182.697l.316 1.937c-.317 3.717-.156 8.134-.108 11.919-1.644.03-3.347.007-4.997.008-11.176 1.015-30.131.36-41.834.447l.051-15.426z" class="B"/><path d="M118.539 102.715c3.228.031 21.859-.424 23.182.697l.316 1.937c-.317 3.717-.156 8.134-.108 11.919-1.644.03-3.347.007-4.997.008-4.005-.517-14.069-.037-18.434.082l.041-14.644z" class="C"/><path d="M212.588 222.3l28.359 29.529-5.229.172c.014 4.153.248 19.55-.348 22.626l-23.748-24.057c1.368-3.37.442-22.489.967-28.27z" class="B"/><g class="C"><path d="M118.48 252.292l.033 23.348a537.92 537.92 0 0 1-23.388-.012l-.007-23.369 23.362.033zm91.11-33.084l2.998 3.093c-.525 5.781.402 24.9-.967 28.27l-22.614-22.661-.074-8.363c5.694.04 15.31.309 20.657-.339z"/></g><path d="M119.443 248.383l3.3 2.89 19.622 17.67c-.659 1.544-.467 4.949-.471 6.775-7.556.352-15.76.067-23.38-.077l-.033-23.348c.071-1.842.005-2.313.962-3.909z" class="B"/><g class="D"><path d="M119.443 248.383l3.3 2.89c-1.576 1.115-2.165 1.008-4.262 1.019.071-1.842.005-2.313.962-3.909zM71.667 102.078c2.811.228 21.168.445 23.403-.056l.079.275-.051 15.426-25.258.341.867-.543c1.057-1.738.608-12.628.475-15.175l.485-.268z"/></g><path d="M95.117 226.465c7.156 6.097 14.034 12.611 21.053 18.872.975.87 2.44 2.078 3.273 3.047-.957 1.596-.891 2.067-.962 3.909l-23.362-.033-.002-25.794z" class="B"/><path d="M162.046 251.949l3.481 3.499-.361 20.123c-2.547.048-8.842.481-10.742-.586 11.793-7.537-.766-16.31-7.077-22.432 3.2-.609 10.288-.018 14.699-.604z" class="C"/><path d="M147.347 252.553c-5.182-5.105 1.089-13.491 6.683-8.659 2.693 2.326 5.535 5.466 8.016 8.055-4.411.586-11.5-.005-14.699.604z" class="B"/><path d="M181.243 252.428c-3.143-2.904-7.486-9.232.493-10.37 2.642-.377 5.208 2.714 7.006 4.635l-.08 5.54c-2.175.083-5.32.298-7.419.195z" class="C"/><path d="M188.742 246.693l5.206 5.279-5.025.282.096 8.023c-2.6-2.483-5.245-5.269-7.776-7.849 2.099.103 5.244-.112 7.419-.195l.08-5.54z" class="B"/><path d="M142.365 268.943c2.308 2.106 4.347 4.165 7.058 5.721-2.434 1.271-4.757 1.046-7.529 1.053.003-1.825-.189-5.23.471-6.775z" class="C"/><path d="M212.377 270.894l4.814 4.801h-4.844l.03-4.801z" class="B"/><path d="M352.92 78.979l23.314-.03 23.433.052-.058 23.414.02 4.098c8.67 3.968 10.476 10.283 10.508 19.375l-.138 107.793-.015 29.018c-.025 4.272-.307 12.266-.009 16.207-.392 7.799-2.673 12.803-10.232 16.019-6.865 1.975-16.89.837-24.274 1.126-11.274-.23-16.686-6.158-17.202-17.153-.569-.944-.605-1.529-.753-2.618-1.096-.973-2.935-.623-4.653-.596.13 4.993.229 9.65.129 14.657-4.536-4.784-9.1-9.962-13.543-14.863 4.278.357 8.864.233 13.179.202-.708-16.938.226-38.633.234-56.18l.141-23.254c.697-2.452.358-19.628.319-23.392l-.392-.39c-.27-7.368-.091-15.616-.079-23.05l.139-.352-.078-23.225-.058-23.405.066-23.454z" class="G"/><path d="M352.92 78.979l23.314-.03 23.433.052-.058 23.414.02 4.098c-7.073-2.151-16.806-1.458-24.327-1.349-12.881 1.858-16.659 8.779-17.225 20.958-.577 5.738-.234 16.815-.217 22.953l-4.872-.014-.078-23.225-.058-23.405.066-23.454z" class="C"/><path d="M352.92 78.979l23.314-.03-.058 23.763c-5.487-.004-18.494.246-23.323-.279l.066-23.454z" class="B"/><path d="M399.61 102.416l.02 4.098c-7.073-2.151-16.806-1.458-24.327-1.349.823-.649.775-1.02 1.204-2.089 1.524-.784 19.992-.643 23.103-.661z" class="F"/><path d="M358.079 126.123c.465 7.272.195 17.08.195 24.579l-.006 43.927v55.124c.009 9.122.319 20.155 0 29.145-.569-.944-.605-1.529-.753-2.618-1.096-.973-2.935-.623-4.653-.596.13 4.993.229 9.65.129 14.657-4.536-4.784-9.1-9.962-13.543-14.863 4.278.357 8.864.233 13.179.202-.708-16.938.226-38.633.234-56.18l.141-23.254c.697-2.452.358-19.628.319-23.392l-.392-.39c-.27-7.368-.091-15.616-.079-23.05l.139-.352 4.872.014c-.018-6.138-.36-17.215.217-22.953z" class="B"/><path d="M353.321 172.855c1.457-.042 3.115-.025 4.528-.29l.005 46.994-4.993-.058.141-23.254c.697-2.452.358-19.628.319-23.392z" class="C"/><path d="M305.86-38.221h23.446 23.722l.098 23.263-.244.348c-.115 3.862.055 20.992-.335 22.811l-.902.354c-6.267.554-15.617.276-22.112.241l-.047 23.493c.121 3.25-.456 21.383.476 22.865l1.814.301-1.963.345c-.835 2.368-.36 19.494-.307 23.228l23.414-.048-.066 23.454.058 23.405.078 23.225-.139.352c-.012 7.434-.191 15.682.079 23.05l.392.39c.039 3.764.378 20.939-.319 23.392-6.973-.098-17.121-.441-23.841.031-.198-3.696.423-20.459-.289-23.12l-.912-.489.526-.151c1.123-1.677.617-19.988.526-23.41-7.615.054-15.23.041-22.844-.037-.219-6.52.538-22.878-.328-28.208.025-3.739.136-6.433-1.115-9.998.533-2.958.594-4.564.702-7.529 1.153-18.645-4.408-34.55-17.677-47.706-1.609-1.42-3.605-2.963-5.292-4.339l.081-19.143c-.207-7.646-.048-15.848-.028-23.536 6.989.301 17.071-.268 23.318.224-.186-7.647-.02-16.001-.024-23.706a710.92 710.92 0 0 0 .054-23.35h0z" class="D"/><path d="M282.511 8.611c6.989.301 17.071-.268 23.318.224.037 6.524-.273 16.954.199 23.108 4.586.434 16.764.512 21.486.169l1.297.45c.736 2.17.22 19.587.294 23.032l-23.287-.005a1104.46 1104.46 0 0 0-18.068.04c-1.609-1.42-3.605-2.963-5.292-4.339l.081-19.143c-.207-7.646-.048-15.848-.028-23.536z" class="B"/><path d="M282.539 32.147l23.371.06-.093 23.382a1104.46 1104.46 0 0 0-18.068.04l-5.292-4.339.081-19.143z" class="C"/><path d="M287.75 55.628l18.068-.04 23.287.005.022 23.397.044 23.378c-4.59-.025-12.811-.297-17.145.031-1.761-.042-4.439-.257-6.033.258l-.566.678c1.153-18.645-4.408-34.55-17.677-47.706z" class="B"/><g class="C"><path d="M305.817 55.588l23.287.005.022 23.397-23.299.063c.392-7.419.093-15.949-.01-23.465zm-.39 47.747l.566-.678c1.594-.515 4.272-.3 6.033-.258 4.877.638 12.076.448 17.09.393l.064 30.071c.007 4.271.23 12.289-.167 16.244-7.615.054-15.23.041-22.844-.037-.219-6.52.538-22.878-.328-28.208.025-3.739.136-6.433-1.115-9.998.533-2.958.594-4.564.702-7.529zm24.093 46.088c7.361-.1 16.051-.273 23.331-.008-.012 7.434-.191 15.682.079 23.05-7.939.321-15.527.325-23.479.312.142-7.699.065-15.644.069-23.354zm23.4-70.444l-.066 23.454-23.285-.088-.063-23.317 23.414-.048z"/></g><g class="B"><path d="M329.569 102.344l23.285.088.058 23.405-23.335.076-.008-23.57zM305.805-14.871l23.253-.012.071 23.375c-4.348-.023-17.878-.292-21.266.369l-2.034-.026c-.186-7.647-.02-16.001-.024-23.706z"/></g><g class="C"><path d="M307.863 8.861c7.037.176 14.274.076 21.33.052-.004 3.189.488 21.478-.753 22.936l-.927.263c-4.722.343-16.9.265-21.486-.169-.471-6.154-.161-16.584-.199-23.108l2.034.026zm21.618-23.651c5.388.006 18.61-.354 23.4.179-.115 3.862.055 20.992-.335 22.811l-.902.354c-6.385-.378-15.515-.087-22.102-.074l-.061-23.27z"/></g><path d="M235.718 252.001l5.229-.172 18.314 19.122 4.339 4.401c6.608 6.882 10.207 11.55 18.856 15.81 11.524 4.465 19.566 3.155 31.632 3.333 13.79.203 27.874-.409 41.628-.022l.628-.283c-.159-.841-2.59-3.079-3.352-3.849.1-5.006.001-9.664-.129-14.657 1.718-.026 3.557-.377 4.653.596.149 1.089.184 1.673.753 2.618.516 10.995 5.928 16.923 17.202 17.153 1.311 2.23.794 22.755.778 26.348-4.786.06-12.798.359-17.69-.302l-1.193-.918c-7.534-4.149-16.031-4.722-22.822 1.069l-5.1-.072-.277.196c-4.287.461-18.006-.004-22.978-.05-.025-6.62.32-16.873-.216-23.074l-.048.366c-.427 3.463.31 21.08-.526 22.518-1.34.124-2.586.23-3.933.298-1.469-.135-1.633-.184-2.711-1.185-4.611-3.149-9.898-3.354-15.195-2.985-3.674 1.182-5.255 1.875-8.026 4.556-1.41-.82-13.996-.433-16.425-.434l.122-23.202h-23.607l-.035-6.183c3.549.192 8.728-1.264 8.431-5.721-.341-5.091-4.063-8.098-7.438-11.447l-1.211-1.204c.596-3.076.362-18.474.348-22.626z" class="B"/><g class="C"><path d="M352.862 275.684c1.718-.026 3.557-.377 4.653.596.149 1.089.184 1.673.753 2.618.516 10.995 5.928 16.923 17.202 17.153 1.311 2.23.794 22.755.778 26.348-4.786.06-12.798.359-17.69-.302l-1.193-.918c-7.534-4.149-16.031-4.722-22.822 1.069l-5.1-.072.066-22.843c7.68-.228 16.084-.509 23.716-.013l-.296-3.422c.862-1.333.758-.944 2.786-1.425l.628-.283c-.159-.841-2.59-3.079-3.352-3.849.1-5.006.001-9.664-.129-14.657zm-117.144-23.683l5.229-.172 18.314 19.122 4.339 4.401c6.608 6.882 10.207 11.55 18.856 15.81.286 2.143.28 5.63.345 7.88-7.463.395-16.001.259-23.483.117a518.57 518.57 0 0 1-.055-23.528c-7.437-.136-15.155.216-22.681.199l-1.211-1.204c.596-3.076.362-18.474.348-22.626z"/></g><path d="M259.261 270.951l4.339 4.401c-1.364.21-2.554.583-3.737.021-.834-1.101-.596-2.91-.601-4.423z" class="F"/><path d="M282.789 299.289c5.091-.031 17.797.174 22.244-.502 1.091-.882.826-1.954 1.259-3.725 4.581-.589 17.668-.198 22.834-.169l.285 4.274c-7.607-.141-15.737.099-23.438.082l-.048.366c-.427 3.463.31 21.08-.526 22.518-1.34.124-2.586.23-3.933.298-1.469-.135-1.633-.184-2.711-1.185-4.611-3.149-9.898-3.354-15.195-2.985l-.355-.218c-.99-1.73-.454-15.966-.415-18.754z" class="C"/><path d="M95.678 72.187c7.326 7.016 12.438 15.074 22.465 15.522l70.556-.082 23.033-.019c6.446.044 14.666-.67 19.591 4.187a11.85 11.85 0 0 1 3.518 8.654 51.71 51.71 0 0 1-.086 2.324c-1.803 7.927-12.864 16.161-19.002 21.697l-26.263 23.64c-1.111-1.599-.547-19.157-.515-22.222l-23.498-.134-.01-23.395-23.182.006-.249 2.986-.316-1.937c-1.322-1.121-19.954-.667-23.182-.697-5.511-.641-17.633-.402-23.39-.417l-.079-.275c.144-7.557.036-15.435.037-23.015.003-1.959-.218-5.168.57-6.82z" class="B"/><path d="M165.467 102.358c7.779.368 15.695.211 23.493.144l.071 23.226c7.683-.008 16.094-.189 23.7.263-.629-7.172-.453-16.242-.403-23.533 2.997.039 21.223-.196 22.427.313-1.803 7.927-12.864 16.161-19.002 21.697l-26.263 23.64c-1.111-1.599-.547-19.157-.515-22.222l-23.498-.134-.01-23.395z" class="C"/><path d="M95.678 72.187c7.326 7.016 12.438 15.074 22.465 15.522.736 1.028.322 12.513.302 14.597l23.354-.017c-.02-2.156-.362-13.056.354-14.245.19 4.703-.111 9.877.133 14.319l-.249 2.986-.316-1.937c-1.322-1.121-19.954-.667-23.182-.697-5.511-.641-17.633-.402-23.39-.417l-.079-.275c.144-7.557.036-15.435.037-23.015.003-1.959-.218-5.168.57-6.82z" class="D"/><g class="C"><path d="M188.991 88.066l23.381-.012-.044 14.404-23.35-.097.013-14.296zm-46.839-.022l23.107.015c.006 4.587-.099 9.768.208 14.298l-23.182.006c-.245-4.442.057-9.617-.133-14.319zm167.878 84.758c5.145-.007 13.001.209 17.93-.133l.912.489c.712 2.661.091 19.423.289 23.12 6.719-.471 16.868-.128 23.841-.031l-.141 23.254c-.008 17.547-.942 39.242-.234 56.18-4.315.031-8.9.155-13.179-.202-6.355-7.435-13.791-15.365-20.397-22.686-2.28-2.076-12.235-13.503-14.26-15.92 1.487-.955 1.02-10.319 1.035-12.542.426-1.618.356-3.14.37-4.812-.173-10.113.02-20.464-.054-30.601-.024-3.31-.377-12.909.043-15.523 1.013-.773 2.467-.578 3.844-.593z"/></g><g class="B"><path d="M306.196 219.518l23.101.009.184 32.723c-2 .009-9.07-.173-10.43.542-2.28-2.076-12.235-13.503-14.26-15.92 1.487-.955 1.02-10.319 1.035-12.542.426-1.618.356-3.14.37-4.812z"/><path d="M329.161 196.277c6.719-.471 16.868-.128 23.841-.031l-.141 23.254-23.563.03c.204-7.012.178-16.367-.137-23.253z"/></g><path d="M305.84 120.861c.866 5.33.109 21.689.328 28.208l22.844.037c.091 3.422.597 21.734-.526 23.41l-.526.151c-4.929.342-12.785.127-17.93.133-1.377.015-2.831-.18-3.844.593-.42 2.614-.067 12.213-.043 15.523l.054 30.601c-.014 1.672.056 3.194-.37 4.812-.041-1.305.095-3.843-.667-4.616-2.766-.314-12.931-.546-15.104.811-6.598-6.469-15.701-17.174-22.209-24.386l14.512-.04c.058-3.696.637-21.055-.326-23.194l-1.222-.268 1.076-.384c.992-1.591.646-21.037.209-23.831 8.111-7.902 12.593-12.509 17.857-22.86 1.665.098 3.874.454 5.223-.33.859-1.273.651-2.753.666-4.37z" class="D"/><path d="M306.168 149.07l22.844.037c.091 3.422.597 21.734-.526 23.41l-.526.151c-4.929.342-12.785.127-17.93.133-1.31-.192-2.901-.318-4.24-.46l.042-23.081.335-.191z" class="B"/><g class="C"><path d="M282.623 149.009c7.393.445 15.806.302 23.21.251l-.042 23.081c-7.546.214-15.379.095-22.949.072-.014-6.604.358-17.266-.218-23.405zm-1.814 23.628l1.222.268c.963 2.139.384 19.498.326 23.194l-14.512.04c-2.948-3.218-6.038-6.498-8.798-9.865.279-4.717.314-8.796.308-13.5 6.11.103 15.546.364 21.453-.138z"/></g><path d="M282.094 148.421c.437 2.794.783 22.241-.209 23.831l-1.076.384c-5.907.502-15.343.24-21.453.138.006 4.704-.03 8.782-.308 13.5-2.503-2.634-9.615-9.443-10.613-12.374.455-1.204.337-.832 1.756-1.655l8.69-5.761c7.981-5.622 15.987-11.506 23.214-18.063z" class="B"/><path d="M250.191 172.245l8.69-5.761.333 6.014c-2.405.139-6.905.61-9.023-.253z" class="C"/><path d="M259.161 32.215l23.378-.068-.081 19.143c-7.767-5.216-14.592-7.543-23.492-9.944.18-2.706.141-6.352.195-9.132z" class="B"/><path d="M290.055 220.525c2.174-1.357 12.339-1.125 15.104-.811.762.774.626 3.311.667 4.616-.014 2.223.453 11.587-1.035 12.542a672.89 672.89 0 0 1-14.736-16.347z" class="C"/><path d="M304.725 110.863c1.251 3.565 1.14 6.259 1.115 9.998-.014 1.617.193 3.097-.666 4.37-1.349.785-3.558.428-5.223.33 2.45-5.306 3.418-9.001 4.773-14.698z" class="F"/><g class="B"><path d="M399.633-38.221h23.463 23.589 23.409 23.345 23.453H540.3h23.341 23.647 23.279 23.691l-.143 23.14c-7.873.127-15.731-.012-23.553.106l.081 23.501c6.357.001 15.677-.294 21.791.079l-.002.225c-6.342.432-14.978.178-21.519.171-.558 6.892.432 16.268-.171 22.757-.17 7.878-.357 15.945-.113 23.822a801.06 801.06 0 0 1-23.388-.041l-23.623.057-23.375-.009-23.357-.056-23.468.006.009 23.447-23.381-.031-23.297.048-23.754-.031-23.329.033-23.433-.052-23.314.03-23.414.048c-.053-3.735-.527-20.86.307-23.228l1.963-.345-1.814-.301c-.932-1.482-.355-19.614-.476-22.865l.047-23.493c6.494.035 15.844.314 22.112-.241l.902-.354c.39-1.819.22-18.949.335-22.811l.244-.348 23.141.039 23.379.052-.012-23.354z"/><path d="M516.892-38.221H540.3h23.341 23.647 23.279 23.691l-.143 23.14c-7.873.127-15.731-.012-23.553.106l.081 23.501c6.357.001 15.677-.294 21.791.079l-.002.225c-6.342.432-14.978.178-21.519.171-.558 6.892.432 16.268-.171 22.757-.17 7.878-.357 15.945-.113 23.822a801.06 801.06 0 0 1-23.388-.041l-23.623.057-23.375-.009-23.357-.056-23.468.006c-7.775.079-15.55.057-23.324-.065l-.022-23.251 23.339-.073.006-23.39 23.528-.093c-.175-7.685-.053-15.807-.058-23.526l.003-23.361z"/></g><path d="M563.641-38.221h23.647 23.279 23.691l-.143 23.14c-7.873.127-15.731-.012-23.553.106l.081 23.501c6.357.001 15.677-.294 21.791.079l-.002.225c-6.342.432-14.978.178-21.519.171-.558 6.892.432 16.268-.171 22.757l-23.3-.066-.012-22.794c-6.002-.046-18.241-.437-23.763.12-3.728.012-7.209.022-10.93-.176 2.836-.343 8.945.341 10.889-.803l.172-22.898-.16-23.362z" class="D"/><g class="C"><path d="M563.801-14.859l23.014-.051c.317 7.654-.222 15.648.059 23.338-3.223-.02-21.758.352-23.245-.388l.172-22.898zm-46.909-23.362H540.3l.014 23.347-.078 23.426-23.279.153-.046 23.353c-7.831.16-15.666.191-23.499.091l.006-23.39 23.528-.093c-.175-7.685-.053-15.807-.058-23.526l.003-23.361zm46.836 70.466l23.47.03.045 23.264-23.623.057.109-23.351zm-46.731.031l23.342-.004-.095 23.315-23.357-.056.11-23.255z"/><path d="M470.073 32.221l23.339-.073.008 23.388c-7.775.079-15.55.057-23.324-.065l-.022-23.251zm70.198-23.458c3.983.146 8.448.065 12.469.079 3.721.198 7.202.188 10.93.176l.042 22.995c-5.91.511-17.37.27-23.348-.09l-.092-23.16z"/></g><path d="M423.096-38.221h23.589 23.409 23.345 23.453l-.003 23.361.058 23.526-23.528.093-.006 23.39c-7.653.19-15.658.076-23.339.073l-23.314-.014-23.631.006-.038-23.616-.009-23.462c.133-7.785.138-15.572.015-23.357h0z" class="B"/><g class="C"><path d="M423.096-38.221h23.589 23.409l.01 23.337-23.411.029-.065 23.45c-6.971.264-16.591.334-23.539.003l-.009-23.462a710.4 710.4 0 0 0 .015-23.357h0zm23.632 46.968l23.3-.173.046 23.647-23.314-.014a650.65 650.65 0 0 1-.031-23.46z"/><path d="M470.105-14.884l23.337.021-.003 23.351c-7.759.438-15.589.258-23.351-.013l.016-23.359z"/></g><path d="M423.09 8.597l.038 23.616 23.631-.006 23.314.014.022 23.251 23.324.065.009 23.447-23.381-.031-23.297.048-23.754-.031-23.329.033-.009-23.449.022-23.382.056-23.562c6.749.418 16.38.07 23.353-.01z" class="B"/><g class="C"><path d="M423.09 8.597l.038 23.616 23.631-.006.021 23.258a539.01 539.01 0 0 1-23.583-.012c-.188-7.575-.076-15.667-.108-23.284l-23.408.001.056-23.562c6.749.418 16.38.07 23.353-.01z"/><path d="M446.721 55.542a726.91 726.91 0 0 0 23.375-.07l23.324.065.009 23.447-23.381-.031-23.297.048c-.25-7.84-.118-15.618-.03-23.458z"/></g><path d="M470.095 55.472l23.324.065.009 23.447-23.381-.031.048-23.48z" class="B"/><path d="M399.658 55.552c7.682.037 15.793.194 23.431-.088.11 7.251.318 16.335-.093 23.504l-23.329.033-.009-23.449z" class="C"/><path d="M399.633-38.221h23.463c.123 7.785.118 15.572-.015 23.357l.009 23.462c-6.973.08-16.604.429-23.353.01l-.056 23.562c-7.814.115-15.629.114-23.443-.003l.016-23.503 23.427-.081-.036-23.45-.012-23.354z" class="B"/><path d="M376.266-14.92l23.379.052.036 23.45-23.427.081-.016 23.503c-7.621-.263-15.641-.109-23.317-.147l.053-23.183c5.899.075 17.852.435 23.277-.204l.016-23.552z" class="C"/><path d="M376.292 55.53l23.367.022.009 23.449-23.433-.052.057-23.42z" class="B"/><g class="C"><path d="M376.237 32.167c7.814.117 15.629.118 23.443.003l-.022 23.382c-7.377.202-15.944.014-23.367-.022-.234-7.423-.045-15.86-.054-23.363z"/><path d="M352.951 55.582c7.562.044 15.843.241 23.341-.053l-.057 23.42-23.314.03.031-23.397zm-23.464-23.293l23.346-.007-.119 23.125-20.937.048-1.814-.301c-.932-1.482-.355-19.614-.476-22.865zM632.433 8.83l1.243.37c.775 2.444.348 19.096.313 22.398l.11 14.06c-23.568 5.288-23.969 10.873-23.746 33.372l-23.055-.054-.056-23.438 23.388.041c-.244-7.877-.057-15.944.113-23.822.603-6.489-.387-15.865.171-22.757 6.541.007 15.176.26 21.519-.171zM1.271 322.427l.013 23.338a764.86 764.86 0 0 1-23.368.189v-23.546c6.359.02 17.384.42 23.355.019z"/></g></g></svg>